<svg width="434" height="47" viewBox="0 0 434 47" fill="none" xmlns="http://www.w3.org/2000/svg">
<path d="M9.84883 4.15H14.9488V11.95C14.9488 22.45 11.9988 32.65 4.54883 37.15L0.448828 32.25C7.34883 28.1 9.84883 19.8 9.84883 11.95V4.15ZM11.1488 4.15H16.2988V11.45C16.2988 19.45 18.3988 27 24.8488 30.55L20.9988 35.8C13.4988 31.6 11.1488 22.05 11.1488 11.45V4.15ZM34.7488 0.149999H41.0988V46.45H34.7488V0.149999ZM29.1988 18.15H36.8488V23.5H29.1988V18.15ZM24.7488 0.849999H30.9988V44.35H24.7488V0.849999ZM47.3449 35.95H89.2449V41.35H47.3449V35.95ZM64.8949 27.2H71.5449V38.15H64.8949V27.2ZM52.0449 3.15H84.5449V18.55H58.7449V26.35H52.1449V13.35H77.9449V8.4H52.0449V3.15ZM52.1449 23.7H85.5949V29.05H52.1449V23.7ZM93.291 22.65H135.241V27.9H93.291V22.65ZM111.241 26.1H117.991V35.85H111.241V26.1ZM98.191 40.3H130.641V45.65H98.191V40.3ZM98.191 31.8H104.891V41.65H98.191V31.8ZM114.241 0.999997C124.191 0.999997 130.891 4.75 130.891 10.6C130.891 16.5 124.191 20.2 114.241 20.2C104.241 20.2 97.591 16.5 97.591 10.6C97.591 4.75 104.241 0.999997 114.241 0.999997ZM114.241 6.25C108.391 6.25 104.741 7.75 104.741 10.6C104.741 13.45 108.391 14.9 114.241 14.9C120.091 14.9 123.741 13.45 123.741 10.6C123.741 7.75 120.091 6.25 114.241 6.25ZM181.783 0.149999H188.483V46.45H181.783V0.149999ZM168.133 4.95H174.733C174.733 19.1 169.933 30.7 153.483 38.65L150.033 33.35C163.333 26.95 168.133 18.55 168.133 6.15V4.95ZM152.483 4.95H171.283V10.2H152.483V4.95ZM195.879 24.95H237.829V30.25H195.879V24.95ZM201.029 1.05H232.729V13.6H207.679V18.6H201.079V8.9H226.179V6.1H201.029V1.05ZM201.079 16.6H233.629V21.65H201.079V16.6ZM213.529 19.05H220.179V27.85H213.529V19.05ZM200.529 32.85H233.029V46.3H226.379V38.1H200.529V32.85ZM253.821 3.95H275.871V26.3H253.821V3.95ZM269.321 9.2H260.371V21.05H269.321V9.2ZM282.271 0.149999H288.921V33.9H282.271V0.149999ZM287.021 13.5H295.071V18.95H287.021V13.5ZM259.071 40.35H290.571V45.65H259.071V40.35ZM259.071 30.6H265.721V43H259.071V30.6ZM298.517 18.1H340.417V23.35H298.517V18.1ZM303.667 10.4H335.467V15.6H303.667V10.4ZM303.667 0.999997H335.067V6.3H310.267V14.9H303.667V0.999997ZM303.267 25.95H335.267V38.2H309.867V42.2H303.317V33.5H328.717V30.95H303.267V25.95ZM303.317 41H336.467V46.1H303.317V41ZM376.363 0.149999H383.063V46.45H376.363V0.149999ZM362.713 4.95H369.313C369.313 19.1 364.513 30.7 348.063 38.65L344.613 33.35C357.913 26.95 362.713 18.55 362.713 6.15V4.95ZM347.063 4.95H365.863V10.2H347.063V4.95ZM412.8 13.45H423.55L433.7 24.5L423.55 35.55H412.8L423 24.5L412.8 13.45Z" fill="url(#paint0_linear_48_4502)" style="mix-blend-mode:darken"/>
<defs>
<linearGradient id="paint0_linear_48_4502" x1="-0.999999" y1="7.25" x2="400.21" y2="227.181" gradientUnits="userSpaceOnUse">
<stop stop-color="#E1306C"/>
<stop offset="0.606989" stop-color="#FF699A"/>
<stop offset="0.942708" stop-color="#FCAF45"/>
</linearGradient>
</defs>
</svg>
