<svg width="20" height="20" viewBox="0 0 20 20" fill="none" xmlns="http://www.w3.org/2000/svg">
<rect width="20" height="20" rx="4" fill="white"/>
<path d="M10.0935 9.34116C10.0352 9.33533 9.96516 9.33533 9.90099 9.34116C8.51266 9.29449 7.41016 8.15699 7.41016 6.75699C7.41016 5.32783 8.56516 4.16699 10.0002 4.16699C11.4293 4.16699 12.5902 5.32783 12.5902 6.75699C12.5843 8.15699 11.4818 9.29449 10.0935 9.34116Z" fill="white" stroke="#5F6073" stroke-linecap="round" stroke-linejoin="round"/>
<path d="M7.17691 11.494C5.76525 12.439 5.76525 13.979 7.17691 14.9182C8.78108 15.9915 11.4119 15.9915 13.0161 14.9182C14.4277 13.9732 14.4277 12.4332 13.0161 11.494C11.4177 10.4265 8.78691 10.4265 7.17691 11.494Z" fill="white" stroke="#5F6073" stroke-linecap="round" stroke-linejoin="round"/>
</svg>
