<svg width="20" height="16" viewBox="0 0 20 16" fill="none" xmlns="http://www.w3.org/2000/svg">
<path d="M4.72034 5.70887C5.11184 5.31932 5.11342 4.68616 4.72387 4.29466C4.33432 3.90316 3.70116 3.90158 3.30966 4.29113L4.72034 5.70887ZM0.294659 7.29113C-0.096838 7.68068 -0.0984173 8.31384 0.291132 8.70534C0.680681 9.09684 1.31384 9.09842 1.70534 8.70887L0.294659 7.29113ZM1.70534 7.29113C1.31384 6.90158 0.680681 6.90316 0.291132 7.29466C-0.0984173 7.68616 -0.096838 8.31932 0.294659 8.70887L1.70534 7.29113ZM3.30966 11.7089C3.70116 12.0984 4.33432 12.0968 4.72387 11.7053C5.11342 11.3138 5.11184 10.6807 4.72034 10.2911L3.30966 11.7089ZM1 7C0.447715 7 0 7.44772 0 8C0 8.55228 0.447715 9 1 9V7ZM15 9C15.5523 9 16 8.55228 16 8C16 7.44772 15.5523 7 15 7V9ZM3.30966 4.29113L0.294659 7.29113L1.70534 8.70887L4.72034 5.70887L3.30966 4.29113ZM0.294659 8.70887L3.30966 11.7089L4.72034 10.2911L1.70534 7.29113L0.294659 8.70887ZM1 9L15 9V7L1 7V9Z" fill="#6F6F6F"/>
<path d="M7 11C7 13.2091 8.79086 15 11 15H15C17.2091 15 19 13.2091 19 11V5C19 2.79086 17.2091 1 15 1H11C8.79086 1 7 2.79086 7 5" stroke="#6F6F6F" stroke-width="2" stroke-linecap="round" stroke-linejoin="round"/>
</svg>
