<svg width="30" height="30" viewBox="0 0 30 30" fill="none" xmlns="http://www.w3.org/2000/svg">
<rect x="1" y="1" width="28" height="28" rx="14" fill="#09A552"/>
<path d="M16.3029 10.75C16.562 10.4268 16.51 9.95482 16.1868 9.69577C15.8635 9.43673 15.3915 9.48874 15.1325 9.81196L16.3029 10.75ZM9.57396 17.9466L10.142 18.4364C10.1478 18.4296 10.1536 18.4227 10.1592 18.4157L9.57396 17.9466ZM9.39583 18.382L8.64729 18.3332L8.64664 18.3473L9.39583 18.382ZM9.25 21.531L8.5008 21.4963C8.49908 21.5336 8.50013 21.5709 8.50396 21.608L9.25 21.531ZM10.0698 22.2466L10.0943 22.9962C10.1443 22.9946 10.1941 22.988 10.2428 22.9764L10.0698 22.2466ZM13.1948 21.506L13.3678 22.2359L13.3794 22.2329L13.1948 21.506ZM13.5958 21.2518L14.1744 21.7291L14.1809 21.721L13.5958 21.2518ZM20.4726 13.8752C20.7317 13.5521 20.6798 13.08 20.3567 12.8209C20.0336 12.5618 19.5615 12.6137 19.3024 12.9368L20.4726 13.8752ZM15.1358 9.81176C14.8766 10.1349 14.9285 10.6069 15.2516 10.8661C15.5747 11.1252 16.0468 11.0734 16.3059 10.7502L15.1358 9.81176ZM17.375 8.2185L17.9601 8.68775C17.9699 8.67546 17.9794 8.66286 17.9885 8.64997L17.375 8.2185ZM19.0719 7.88517L19.5517 7.30873C19.5278 7.28885 19.5027 7.27047 19.4765 7.25371L19.0719 7.88517ZM21.4021 9.82475L21.9329 9.29491C21.9166 9.2786 21.8996 9.26306 21.8819 9.24831L21.4021 9.82475ZM21.7531 10.6798L22.503 10.684V10.684L21.7531 10.6798ZM21.3927 11.531L20.8677 10.9954C20.8465 11.0162 20.8265 11.0383 20.8078 11.0615L21.3927 11.531ZM19.3026 12.9365C19.0433 13.2595 19.095 13.7316 19.418 13.9909C19.741 14.2502 20.2131 14.1985 20.4724 13.8755L19.3026 12.9365ZM16.4626 10.1699C16.4012 9.76022 16.0193 9.4779 15.6097 9.53929C15.2 9.60067 14.9177 9.98251 14.9791 10.3922L16.4626 10.1699ZM19.9885 14.1492C20.3989 14.0934 20.6864 13.7155 20.6307 13.305C20.5749 12.8946 20.197 12.6071 19.7865 12.6628L19.9885 14.1492ZM15.1325 9.81196L8.98873 17.4776L10.1592 18.4157L16.3029 10.75L15.1325 9.81196ZM9.00593 17.4569C8.79436 17.7023 8.66851 18.0099 8.64742 18.3332L10.1442 18.4309C10.1441 18.4329 10.1433 18.4348 10.142 18.4364L9.00593 17.4569ZM8.64664 18.3473L8.5008 21.4963L9.9992 21.5657L10.145 18.4167L8.64664 18.3473ZM8.50396 21.608C8.58735 22.4165 9.28192 23.0228 10.0943 22.9962L10.0453 21.497C10.0201 21.4979 9.99862 21.4791 9.99604 21.4541L8.50396 21.608ZM10.2428 22.9764L13.3678 22.2358L13.0218 20.7762L9.89683 21.5168L10.2428 22.9764ZM13.3794 22.2329C13.6912 22.1537 13.9697 21.9773 14.1744 21.7291L13.0173 20.7746C13.0155 20.7768 13.013 20.7784 13.0102 20.7791L13.3794 22.2329ZM14.1809 21.721L20.4726 13.8752L19.3024 12.9368L13.0107 20.7826L14.1809 21.721ZM16.3059 10.7502L17.9601 8.68775L16.7899 7.74926L15.1358 9.81176L16.3059 10.7502ZM17.9885 8.64997C18.1425 8.43095 18.4418 8.37216 18.6672 8.51664L19.4765 7.25371C18.5747 6.6758 17.3777 6.91094 16.7615 7.78704L17.9885 8.64997ZM18.5921 8.46161L20.9223 10.4012L21.8819 9.24831L19.5517 7.30873L18.5921 8.46161ZM20.8713 10.3546C20.9563 10.4398 21.0037 10.5554 21.0031 10.6757L22.503 10.684C22.5059 10.1634 22.3006 9.66333 21.9329 9.29491L20.8713 10.3546ZM21.0031 10.6757C21.0024 10.796 20.9537 10.9111 20.8677 10.9954L21.9177 12.0666C22.2894 11.7023 22.5002 11.2045 22.503 10.684L21.0031 10.6757ZM20.8078 11.0615L19.3026 12.9365L20.4724 13.8755L21.9776 12.0005L20.8078 11.0615ZM14.9791 10.3922C15.3405 12.8037 17.5722 14.4775 19.9885 14.1492L19.7865 12.6628C18.1832 12.8807 16.7023 11.77 16.4626 10.1699L14.9791 10.3922Z" fill="white"/>
<rect x="1" y="1" width="28" height="28" rx="14" stroke="white" stroke-width="2"/>
</svg>
