<svg width="20" height="20" viewBox="0 0 20 20" fill="none" xmlns="http://www.w3.org/2000/svg">
<rect width="20" height="20" rx="4" fill="white"/>
<path d="M6.5 8.83366V7.66699C6.5 5.73616 7.08333 4.16699 10 4.16699C12.9167 4.16699 13.5 5.73616 13.5 7.66699V8.83366" stroke="#5F6073" stroke-linecap="round" stroke-linejoin="round"/>
<path d="M10.0003 13.7917C10.8057 13.7917 11.4587 13.1387 11.4587 12.3333C11.4587 11.5279 10.8057 10.875 10.0003 10.875C9.19491 10.875 8.54199 11.5279 8.54199 12.3333C8.54199 13.1387 9.19491 13.7917 10.0003 13.7917Z" stroke="#5F6073" stroke-linecap="round" stroke-linejoin="round"/>
<path d="M12.917 15.834H7.08366C4.75033 15.834 4.16699 15.2507 4.16699 12.9173V11.7507C4.16699 9.41732 4.75033 8.83398 7.08366 8.83398H12.917C15.2503 8.83398 15.8337 9.41732 15.8337 11.7507V12.9173C15.8337 15.2507 15.2503 15.834 12.917 15.834Z" stroke="#5F6073" stroke-linecap="round" stroke-linejoin="round"/>
</svg>
