<svg width="16" height="16" viewBox="0 0 16 16" fill="none" xmlns="http://www.w3.org/2000/svg">
<path fill-rule="evenodd" clip-rule="evenodd" d="M8 10C6.89543 10 6 9.10457 6 8C6 6.89543 6.89543 6 8 6C9.10457 6 10 6.89543 10 8C10 8.53043 9.78929 9.03914 9.41421 9.41421C9.03914 9.78929 8.53043 10 8 10Z" stroke="white" stroke-width="1.5" stroke-linecap="round" stroke-linejoin="round"/>
<path fill-rule="evenodd" clip-rule="evenodd" d="M13.317 12.063V10.721C13.317 10.3887 13.449 10.07 13.684 9.83499L14.633 8.88599C15.1223 8.39666 15.1223 7.60332 14.633 7.11399L13.684 6.16499C13.449 5.93001 13.317 5.61131 13.317 5.27899V3.93599C13.317 3.24398 12.756 2.68299 12.064 2.68299H10.721C10.3887 2.68299 10.07 2.55097 9.83499 2.31599L8.88599 1.36699C8.39666 0.87767 7.60332 0.87767 7.11399 1.36699L6.16499 2.31599C5.93001 2.55097 5.61131 2.68299 5.27899 2.68299H3.93599C3.6035 2.68299 3.28464 2.81514 3.04963 3.05034C2.81462 3.28554 2.68273 3.6045 2.68299 3.93699V5.27899C2.68299 5.61131 2.55097 5.93001 2.31599 6.16499L1.36699 7.11399C0.87767 7.60332 0.87767 8.39666 1.36699 8.88599L2.31599 9.83499C2.55097 10.07 2.68299 10.3887 2.68299 10.721V12.063C2.68299 12.755 3.24398 13.316 3.93599 13.316H5.27899C5.61131 13.316 5.93001 13.448 6.16499 13.683L7.11399 14.632C7.60332 15.1213 8.39666 15.1213 8.88599 14.632L9.83499 13.683C10.07 13.448 10.3887 13.316 10.721 13.316H12.063C12.3955 13.3163 12.7144 13.1844 12.9496 12.9493C13.1848 12.7143 13.317 12.3955 13.317 12.063Z" stroke="white" stroke-width="1.5" stroke-linecap="round" stroke-linejoin="round"/>
</svg>
