<svg width="40" height="40" viewBox="0 0 40 40" fill="none" xmlns="http://www.w3.org/2000/svg">
<rect width="40" height="40" rx="20" fill="white"/>
<path d="M20.2529 14.5459C21.8777 14.5459 22.9737 15.2478 23.5987 15.8343L26.0407 13.4499C24.5409 12.0559 22.5892 11.2002 20.2529 11.2002C16.8687 11.2002 13.946 13.1423 12.5231 15.9688L15.3208 18.1417C16.0227 16.0554 17.9647 14.5459 20.2529 14.5459Z" fill="#EA4335"/>
<path d="M28.5596 20.0453C28.5596 19.3338 28.5019 18.8147 28.3769 18.2763H20.2529V21.4874H25.0216C24.9254 22.2854 24.4062 23.4872 23.2525 24.2948L25.983 26.4099C27.6174 24.9005 28.5596 22.6796 28.5596 20.0453Z" fill="#4285F4"/>
<path d="M15.3304 21.5643C15.1477 21.0259 15.042 20.4491 15.042 19.853C15.042 19.2569 15.1478 18.6801 15.3208 18.1417L12.5231 15.9688C11.9366 17.1418 11.6001 18.4589 11.6001 19.853C11.6001 21.247 11.9366 22.5642 12.5231 23.7371L15.3304 21.5643Z" fill="#FBBC05"/>
<path d="M20.2529 28.5058C22.5891 28.5058 24.5505 27.7367 25.983 26.4099L23.2525 24.2948C22.5219 24.8043 21.5412 25.16 20.2529 25.16C17.9647 25.16 16.0226 23.6506 15.3304 21.5643L12.5327 23.7371C13.9556 26.5637 16.8687 28.5058 20.2529 28.5058Z" fill="#34A853"/>
</svg>
