<svg width="40" height="40" viewBox="0 0 40 40" fill="none" xmlns="http://www.w3.org/2000/svg">
<g clip-path="url(#clip0_42_2670)">
<rect width="40" height="40" rx="20" fill="white"/>
<path fill-rule="evenodd" clip-rule="evenodd" d="M100 0H0V100H100V0ZM20.1281 16.4808C18.1164 16.4808 16.486 18.1111 16.486 20.1216C16.486 22.1321 18.1164 23.7624 20.1281 23.7624C22.1399 23.7624 23.7711 22.1321 23.7711 20.1216C23.7711 18.1111 22.1399 16.4808 20.1281 16.4808ZM20.1281 25.7297C17.0289 25.7297 14.5167 23.2189 14.5167 20.1216C14.5167 17.0242 17.0289 14.5135 20.1281 14.5135C23.2274 14.5135 25.7396 17.0242 25.7396 20.1216C25.7396 23.2189 23.2274 25.7297 20.1281 25.7297ZM24.8711 15.0193C24.7271 14.8037 24.6503 14.5503 24.6504 14.2911C24.6507 13.9437 24.789 13.6105 25.0348 13.3649C25.2807 13.1193 25.6141 12.9812 25.9618 12.9811H25.9623C26.2216 12.9812 26.4752 13.0581 26.6908 13.2022C26.9063 13.3463 27.0743 13.5511 27.1735 13.7906C27.2727 14.0301 27.2985 14.2936 27.2478 14.5478C27.1971 14.802 27.0721 15.0355 26.8887 15.2187C26.7052 15.402 26.4715 15.5267 26.2171 15.5772C25.9627 15.6276 25.699 15.6016 25.4594 15.5023C25.2198 15.403 25.0151 15.2349 24.8711 15.0193ZM13.6838 28.6358C14.0686 28.7856 14.6477 28.963 15.7132 29.0115C16.8647 29.0644 17.2098 29.075 20.1281 29.075C23.0465 29.075 23.3925 29.0644 24.5444 29.0115C25.6099 28.9631 26.1891 28.7857 26.5738 28.6358C27.084 28.4373 27.4486 28.2005 27.8308 27.8189C28.213 27.4372 28.4496 27.0734 28.6482 26.5635C28.7973 26.1789 28.9756 25.6001 29.0242 24.5353C29.0771 23.3831 29.0877 23.0383 29.0877 20.1217C29.0877 17.2051 29.0771 16.8602 29.0242 15.708C28.9757 14.6432 28.7983 14.0643 28.6482 13.6799C28.4496 13.17 28.2136 12.8056 27.8308 12.4236C27.4481 12.0416 27.084 11.8043 26.5738 11.6067C26.188 11.4581 25.6099 11.2795 24.5444 11.231C23.3915 11.1789 23.0452 11.1675 20.1281 11.1675C17.2111 11.1675 16.8651 11.178 15.7132 11.231C14.6477 11.2794 14.0684 11.4567 13.6838 11.6067C13.1727 11.8043 12.809 12.0411 12.4268 12.4236C12.0445 12.8061 11.808 13.17 11.6093 13.6799C11.4607 14.0654 11.2819 14.6432 11.2334 15.708C11.1813 16.8602 11.1699 17.2051 11.1699 20.1217C11.1699 23.0383 11.1804 23.3841 11.2334 24.5353C11.2819 25.6001 11.4593 26.179 11.6093 26.5635C11.8071 27.0734 12.044 27.4369 12.4268 27.8189C12.8095 28.2008 13.1736 28.4373 13.6838 28.6358ZM12.9701 9.77343C13.6644 9.50344 14.4593 9.31909 15.6227 9.26614C16.7885 9.21232 17.1613 9.2 20.129 9.2C23.0967 9.2 23.4693 9.21319 24.6345 9.26614C25.797 9.31822 26.5915 9.50344 27.287 9.77343C28.0047 10.0522 28.6148 10.4253 29.222 11.0332C29.8293 11.641 30.2027 12.2497 30.4825 12.9679C30.7526 13.6617 30.9371 14.4561 30.9901 15.6188C31.0431 16.7833 31.0554 17.1556 31.0554 20.1216C31.0554 23.0875 31.0431 23.459 30.9901 24.6243C30.938 25.787 30.7526 26.581 30.4825 27.2753C30.2027 27.9934 29.8302 28.6031 29.222 29.21C28.6138 29.8169 28.0047 30.1901 27.2862 30.4697C26.5915 30.7397 25.797 30.9241 24.6336 30.977C23.4684 31.0308 23.0959 31.0432 20.1281 31.0432C17.1604 31.0432 16.7885 31.03 15.6227 30.977C14.4593 30.9241 13.6657 30.7397 12.9701 30.4697C12.2511 30.1901 11.6424 29.8166 11.0343 29.21C10.4261 28.6034 10.0527 27.9934 9.77377 27.2753C9.50363 26.581 9.31916 25.7871 9.26618 24.6243C9.21233 23.4598 9.2 23.0875 9.2 20.1216C9.2 17.1556 9.21233 16.7833 9.26618 15.6188C9.31916 14.4562 9.50363 13.6621 9.77377 12.9679C10.0527 12.2493 10.426 11.6401 11.0343 11.0332C11.6425 10.4263 12.2511 10.0522 12.9701 9.77343Z" fill="url(#paint0_linear_42_2670)"/>
</g>
<defs>
<linearGradient id="paint0_linear_42_2670" x1="40.5" y1="42.5" x2="-1.922" y2="-3.14582e-06" gradientUnits="userSpaceOnUse">
<stop stop-color="#FBE18A"/>
<stop offset="0.171875" stop-color="#FCBC47"/>
<stop offset="0.21" stop-color="#FCBB45"/>
<stop offset="0.38" stop-color="#F75274"/>
<stop offset="0.52" stop-color="#D53692"/>
<stop offset="0.74" stop-color="#8F39CE"/>
<stop offset="1" stop-color="#5B4FE9"/>
</linearGradient>
<clipPath id="clip0_42_2670">
<rect width="40" height="40" rx="20" fill="white"/>
</clipPath>
</defs>
</svg>
