<svg width="14" height="16" viewBox="0 0 14 16" fill="none" xmlns="http://www.w3.org/2000/svg">
<path d="M5.27719 14.4623C4.9802 14.751 4.97351 15.2258 5.26225 15.5228C5.55099 15.8198 6.02582 15.8265 6.32281 15.5377L5.27719 14.4623ZM13 8L13.5228 8.53775C13.6681 8.39654 13.75 8.20258 13.75 8C13.75 7.79742 13.6681 7.60346 13.5228 7.46225L13 8ZM6.32281 0.462254C6.02582 0.173514 5.55099 0.180202 5.26225 0.477191C4.97351 0.77418 4.9802 1.24901 5.27719 1.53775L6.32281 0.462254ZM0.477207 13.2952C0.180209 13.584 0.173508 14.0588 0.462239 14.3558C0.75097 14.6528 1.2258 14.6595 1.52279 14.3708L0.477207 13.2952ZM7 8L7.52279 8.53776C7.66805 8.39655 7.75 8.20258 7.75 8C7.75 7.79742 7.66805 7.60345 7.52279 7.46224L7 8ZM1.52279 1.62924C1.2258 1.34051 0.75097 1.34721 0.462239 1.64421C0.173508 1.9412 0.180209 2.41603 0.477207 2.70476L1.52279 1.62924ZM6.32281 15.5377L13.5228 8.53775L12.4772 7.46225L5.27719 14.4623L6.32281 15.5377ZM13.5228 7.46225L6.32281 0.462254L5.27719 1.53775L12.4772 8.53775L13.5228 7.46225ZM1.52279 14.3708L7.52279 8.53776L6.47721 7.46224L0.477207 13.2952L1.52279 14.3708ZM7.52279 7.46224L1.52279 1.62924L0.477207 2.70476L6.47721 8.53776L7.52279 7.46224Z" fill="white"/>
</svg>
