<svg width="38" height="34" viewBox="0 0 38 34" fill="none" xmlns="http://www.w3.org/2000/svg">
<path d="M9.52374 17.2361C9.86619 17.9904 10.7553 18.3243 11.5096 17.9819C12.264 17.6394 12.5979 16.7503 12.2554 15.996L9.52374 17.2361ZM6.75417 13.9702L6.73435 15.4701C6.7441 15.4702 6.75386 15.4702 6.76361 15.4702L6.75417 13.9702ZM2.25 18.3556L0.750137 18.3354C0.750046 18.3421 0.75 18.3489 0.75 18.3556H2.25ZM2.25 27.1306H0.75C0.75 27.1385 0.750063 27.1465 0.750188 27.1544L2.25 27.1306ZM6.75417 31.5056L6.76599 30.0057C6.75542 30.0056 6.74486 30.0056 6.7343 30.0057L6.75417 31.5056ZM12.4603 28.9574C12.7294 28.1739 12.3124 27.3206 11.5289 27.0515C10.7454 26.7824 9.89207 27.1995 9.623 27.983L12.4603 28.9574ZM12.26 16.0062C11.9232 15.2493 11.0366 14.9088 10.2797 15.2456C9.52285 15.5824 9.18234 16.469 9.51916 17.2259L12.26 16.0062ZM11.2583 18.3556L9.75833 18.3542V18.3556H11.2583ZM11.2583 27.1306H9.7583L9.75837 27.141L11.2583 27.1306ZM9.62317 28.0158C9.36759 28.8038 9.79921 29.6498 10.5872 29.9054C11.3752 30.1609 12.2212 29.7293 12.4768 28.9413L9.62317 28.0158ZM9.5467 15.9477C9.17759 16.6893 9.47959 17.5898 10.2212 17.9589C10.9629 18.328 11.8633 18.026 12.2325 17.2844L9.5467 15.9477ZM12.3646 14.8056L11.479 13.595C11.4654 13.6049 11.4519 13.6151 11.4387 13.6255L12.3646 14.8056ZM13.1521 13.6889L14.5898 14.1167C14.5951 14.0989 14.6001 14.0809 14.6047 14.0628L13.1521 13.6889ZM15.4042 4.93895L13.9639 4.51982C13.9595 4.53484 13.9554 4.54992 13.9515 4.56506L15.4042 4.93895ZM19.8188 2.45978L19.427 3.90772C19.4385 3.91082 19.45 3.91378 19.4615 3.91661L19.8188 2.45978ZM21.9937 4.07198L20.7038 4.83745V4.83745L21.9937 4.07198ZM22.3667 6.75353L23.8128 7.15197C23.8141 7.14731 23.8153 7.14265 23.8166 7.13798L22.3667 6.75353ZM21.0792 11.4264L19.6331 11.028C19.631 11.0356 19.6289 11.0432 19.627 11.0508L21.0792 11.4264ZM21.4019 12.961L20.224 13.8897L20.224 13.8897L21.4019 12.961ZM22.8188 13.6327V12.1327C22.8099 12.1327 22.801 12.1328 22.7922 12.1329L22.8188 13.6327ZM30.1771 13.6327V15.1327C30.184 15.1327 30.1908 15.1327 30.1977 15.1326L30.1771 13.6327ZM33.9706 15.1438L35.0168 14.069V14.069L33.9706 15.1438ZM35.5833 18.8952H37.0833C37.0833 18.8886 37.0833 18.882 37.0832 18.8754L35.5833 18.8952ZM35.5833 25.9098L37.0832 25.9301C37.0833 25.9234 37.0833 25.9166 37.0833 25.9098H35.5833ZM33.9698 29.6598L32.9238 28.5847L33.9698 29.6598ZM30.1771 31.1702L30.1977 29.6703C30.1908 29.6702 30.184 29.6702 30.1771 29.6702V31.1702ZM15.7625 31.1702V29.6702L15.7549 29.6702L15.7625 31.1702ZM12.3384 27.7162C11.922 27 11.0038 26.7571 10.2877 27.1735C9.5715 27.5899 9.32852 28.5081 9.74495 29.2242L12.3384 27.7162ZM12.2554 15.996C11.275 13.8364 9.11636 12.4553 6.74472 12.4702L6.76361 15.4702C7.95149 15.4627 9.03269 16.1544 9.52374 17.2361L12.2554 15.996ZM6.77398 12.4703C3.49115 12.427 0.794466 15.0525 0.750137 18.3354L3.74986 18.3759C3.77183 16.7494 5.10789 15.4486 6.73435 15.4701L6.77398 12.4703ZM0.75 18.3556V27.1306H3.75V18.3556H0.75ZM0.750188 27.1544C0.802124 30.4317 3.49656 33.0489 6.77404 33.0055L6.7343 30.0057C5.11049 30.0273 3.77554 28.7306 3.74981 27.1068L0.750188 27.1544ZM6.74235 33.0056C9.32046 33.0259 11.6229 31.3958 12.4603 28.9574L9.623 27.983C9.20458 29.2013 8.05415 30.0158 6.76599 30.0057L6.74235 33.0056ZM9.51916 17.2259C9.67721 17.581 9.7587 17.9655 9.75833 18.3542L12.7583 18.357C12.7591 17.5471 12.5893 16.7461 12.26 16.0062L9.51916 17.2259ZM9.75833 18.3556V27.1306H12.7583V18.3556H9.75833ZM9.75837 27.141C9.76043 27.438 9.71478 27.7333 9.62317 28.0158L12.4768 28.9413C12.6676 28.3533 12.7626 27.7384 12.7583 27.1202L9.75837 27.141ZM12.2325 17.2844C12.4843 16.7783 12.8458 16.3347 13.2905 15.9857L11.4387 13.6255C10.6434 14.2495 9.99709 15.0427 9.5467 15.9477L12.2325 17.2844ZM13.2502 16.0163C13.8923 15.5465 14.3629 14.8793 14.5898 14.1167L11.7144 13.2612C11.6745 13.3952 11.5918 13.5124 11.479 13.595L13.2502 16.0163ZM14.6047 14.0628L16.8568 5.31283L13.9515 4.56506L11.6994 13.3151L14.6047 14.0628ZM16.8444 5.35807C17.1664 4.25175 18.3148 3.60682 19.427 3.90772L20.2105 1.01184C17.5203 0.284021 14.7426 1.84393 13.9639 4.51982L16.8444 5.35807ZM19.4615 3.91661C19.9824 4.04436 20.4301 4.3762 20.7038 4.83745L23.2837 3.3065C22.599 2.15264 21.4791 1.32253 20.176 1.00295L19.4615 3.91661ZM20.7038 4.83745C20.9775 5.29871 21.0542 5.85065 20.9168 6.36908L23.8166 7.13798C24.1604 5.84107 23.9684 4.46036 23.2837 3.3065L20.7038 4.83745ZM20.9206 6.35509L19.6331 11.028L22.5253 11.8249L23.8128 7.15197L20.9206 6.35509ZM19.627 11.0508C19.3715 12.0384 19.5923 13.0886 20.224 13.8897L22.5797 12.0322C22.5286 11.9673 22.5107 11.8822 22.5314 11.8021L19.627 11.0508ZM20.224 13.8897C20.8556 14.6908 21.8253 15.1505 22.8453 15.1325L22.7922 12.1329C22.7095 12.1344 22.6309 12.0971 22.5797 12.0322L20.224 13.8897ZM22.8188 15.1327H30.1771V12.1327H22.8188V15.1327ZM30.1977 15.1326C31.2147 15.1186 32.1955 15.5093 32.9243 16.2187L35.0168 14.069C33.7177 12.8044 31.9693 12.1079 30.1564 12.1328L30.1977 15.1326ZM32.9243 16.2187C33.6531 16.9281 34.0701 17.898 34.0835 18.915L37.0832 18.8754C37.0593 17.0626 36.316 15.3336 35.0168 14.069L32.9243 16.2187ZM34.0833 18.8952V25.9098H37.0833V18.8952H34.0833ZM34.0835 25.8894C34.0697 26.9061 33.6525 27.8757 32.9238 28.5847L35.0159 30.7349C36.3149 29.4709 37.0586 27.7425 37.0832 25.9301L34.0835 25.8894ZM32.9238 28.5847C32.195 29.2938 31.2144 29.6843 30.1977 29.6703L30.1564 32.6701C31.9688 32.695 33.7168 31.9989 35.0159 30.7349L32.9238 28.5847ZM30.1771 29.6702H15.7625V32.6702H30.1771V29.6702ZM15.7549 29.6702C14.3484 29.6773 13.0454 28.9321 12.3384 27.7162L9.74495 29.2242C10.9918 31.3685 13.2897 32.6827 15.7701 32.6702L15.7549 29.6702Z" fill="black"/>
</svg>
