<svg width="19" height="17" viewBox="0 0 19 17" fill="none" xmlns="http://www.w3.org/2000/svg">
<path fill-rule="evenodd" clip-rule="evenodd" d="M13.0293 4.85433C13.0293 5.14198 13.3036 5.37516 13.642 5.37516C13.9805 5.37516 14.2548 5.14198 14.2548 4.85433C14.2548 4.56668 13.9805 4.3335 13.642 4.3335C13.3036 4.3335 13.0293 4.56668 13.0293 4.85433Z" stroke="#333333" stroke-width="1.5" stroke-linecap="round" stroke-linejoin="round"/>
<path d="M17.1813 7.4585C17.1813 7.87271 17.5171 8.2085 17.9313 8.2085C18.3455 8.2085 18.6813 7.87271 18.6813 7.4585H17.1813ZM0.774418 11.6252L1.52442 11.6263V11.6252H0.774418ZM1.18312 14.6101C1.45672 14.9211 1.93062 14.9514 2.24162 14.6779C2.55262 14.4043 2.58294 13.9304 2.30934 13.6194L1.18312 14.6101ZM18.6813 7.4585C18.6813 7.04428 18.3455 6.7085 17.9313 6.7085C17.5171 6.7085 17.1813 7.04428 17.1813 7.4585H18.6813ZM5.67638 15.7918V15.0418H5.67597L5.67638 15.7918ZM2.3106 13.6208C2.03779 13.3091 1.56396 13.2776 1.25227 13.5504C0.940586 13.8232 0.909065 14.297 1.18187 14.6087L2.3106 13.6208ZM18.3891 8.05257C18.7172 7.79974 18.7782 7.3288 18.5254 7.0007C18.2725 6.6726 17.8016 6.61159 17.4735 6.86442L18.3891 8.05257ZM12.1715 11.897L11.7137 11.3029L11.7084 11.3071L12.1715 11.897ZM11.2394 12.1699L11.187 12.9181H11.187L11.2394 12.1699ZM10.3725 11.771L10.926 11.2649L10.9256 11.2645L10.3725 11.771ZM7.91045 9.08245L8.46357 8.57594L8.46231 8.57457L7.91045 9.08245ZM6.91994 8.68283L6.9068 7.93294L6.91994 8.68283ZM5.94966 9.11683L5.37666 8.63292L5.37568 8.63409L5.94966 9.11683ZM1.17225 13.632C0.905636 13.949 0.946487 14.4221 1.26349 14.6887C1.58049 14.9553 2.05361 14.9145 2.32022 14.5975L1.17225 13.632ZM18.6813 7.4585V5.37516H17.1813V7.4585H18.6813ZM18.6813 5.37516C18.6813 2.5501 16.0319 0.458496 13.0293 0.458496V1.9585C15.4413 1.9585 17.1813 3.59786 17.1813 5.37516H18.6813ZM13.0293 0.458496H5.67638V1.9585H13.0293V0.458496ZM5.67638 0.458496C2.6738 0.458496 0.0244185 2.5501 0.0244185 5.37516H1.52442C1.52442 3.59786 3.2644 1.9585 5.67638 1.9585V0.458496ZM0.0244185 5.37516V11.6252H1.52442V5.37516H0.0244185ZM0.0244194 11.624C0.0226966 12.7169 0.438921 13.7642 1.18312 14.6101L2.30934 13.6194C1.78908 13.028 1.52331 12.3281 1.52442 11.6263L0.0244194 11.624ZM17.1813 7.4585V11.6252H18.6813V7.4585H17.1813ZM17.1813 11.6252C17.1813 13.4025 15.4413 15.0418 13.0293 15.0418V16.5418C16.0319 16.5418 18.6813 14.4502 18.6813 11.6252H17.1813ZM13.0293 15.0418H5.67638V16.5418H13.0293V15.0418ZM5.67597 15.0418C4.31886 15.0426 3.07657 14.4959 2.3106 13.6208L1.18187 14.6087C2.26434 15.8455 3.93713 16.5428 5.67679 16.5418L5.67597 15.0418ZM17.4735 6.86442L11.7137 11.303L12.6293 12.4911L18.3891 8.05257L17.4735 6.86442ZM11.7084 11.3071C11.6134 11.3817 11.4623 11.4337 11.2918 11.4217L11.187 12.9181C11.7003 12.954 12.2255 12.8081 12.6346 12.487L11.7084 11.3071ZM11.2918 11.4217C11.1211 11.4098 10.9934 11.3386 10.926 11.2649L9.81896 12.2771C10.1726 12.6639 10.6738 12.8821 11.187 12.9181L11.2918 11.4217ZM10.9256 11.2645L8.46357 8.57594L7.35733 9.58897L9.81934 12.2775L10.9256 11.2645ZM8.46231 8.57457C8.0641 8.14188 7.48306 7.92284 6.9068 7.93294L6.93309 9.43271C7.12837 9.42929 7.28132 9.50638 7.35859 9.59034L8.46231 8.57457ZM6.9068 7.93294C6.33057 7.94304 5.75703 8.18252 5.37666 8.63292L6.52267 9.60074C6.59231 9.51827 6.73777 9.43614 6.93309 9.43271L6.9068 7.93294ZM5.37568 8.63409L1.17225 13.632L2.32022 14.5975L6.52365 9.59957L5.37568 8.63409Z" fill="#333333"/>
</svg>
