<svg width="20" height="20" viewBox="0 0 20 20" fill="none" xmlns="http://www.w3.org/2000/svg">
<path fill-rule="evenodd" clip-rule="evenodd" d="M3.50655 14.6421C2.42549 13.5383 1.69226 12.1413 1.3978 10.6246C1.10091 9.10364 1.25336 7.52912 1.83655 6.09336C2.41476 4.66566 3.40192 3.44063 4.67405 2.57211C7.25511 0.809295 10.653 0.809295 13.2341 2.57211C14.5062 3.44063 15.4933 4.66566 16.0716 6.09336C16.6547 7.52912 16.8072 9.10364 16.5103 10.6246C16.2158 12.1413 15.4826 13.5383 14.4016 14.6421C12.9699 16.1113 11.0054 16.9399 8.95405 16.9399C6.90266 16.9399 4.93824 16.1113 3.50655 14.6421V14.6421Z" stroke="black" stroke-width="1.5" stroke-linecap="round" stroke-linejoin="round"/>
<path d="M8.98249 4.18992C8.57059 4.23357 8.27205 4.60287 8.3157 5.01477C8.35935 5.42668 8.72864 5.72522 9.14055 5.68157L8.98249 4.18992ZM11.4496 7.04188C11.6111 7.42332 12.0512 7.60163 12.4327 7.44015C12.8141 7.27867 12.9924 6.83855 12.8309 6.45711L11.4496 7.04188ZM15.0451 13.9912C14.752 13.6986 14.2771 13.699 13.9845 13.9921C13.6918 14.2853 13.6923 14.7602 13.9854 15.0528L15.0451 13.9912ZM18.2204 19.2803C18.5136 19.5729 18.9884 19.5725 19.2811 19.2794C19.5737 18.9862 19.5733 18.5113 19.2801 18.2187L18.2204 19.2803ZM9.14055 5.68157C10.1258 5.57717 11.0634 6.12952 11.4496 7.04188L12.8309 6.45711C12.1872 4.9365 10.6246 4.01592 8.98249 4.18992L9.14055 5.68157ZM13.9854 15.0528L18.2204 19.2803L19.2801 18.2187L15.0451 13.9912L13.9854 15.0528Z" fill="black"/>
</svg>
