<svg width="24" height="24" viewBox="0 0 24 24" fill="none" xmlns="http://www.w3.org/2000/svg">
<g clip-path="url(#clip0_2_1552)">
<path d="M12.202 3.20312H5.25C4.45435 3.20313 3.69129 3.5192 3.12868 4.0818C2.56607 4.64441 2.25 5.40748 2.25 6.20312V18.7501C2.25 19.5458 2.56607 20.3088 3.12868 20.8714C3.69129 21.4341 4.45435 21.7501 5.25 21.7501H17.797C18.5927 21.7501 19.3557 21.4341 19.9183 20.8714C20.4809 20.3088 20.797 19.5458 20.797 18.7501V11.7981" stroke="white" stroke-width="2" stroke-linecap="round" stroke-linejoin="round"/>
<path d="M10.0019 17.2261H6.77393V13.9981L18.6069 2.16506C18.7385 2.03347 18.8947 1.92909 19.0666 1.85787C19.2386 1.78665 19.4228 1.75 19.6089 1.75C19.795 1.75 19.9793 1.78665 20.1512 1.85787C20.3231 1.92909 20.4793 2.03347 20.6109 2.16506L21.8349 3.39006C21.9665 3.52164 22.0709 3.67785 22.1421 3.84978C22.2133 4.0217 22.25 4.20597 22.25 4.39206C22.25 4.57815 22.2133 4.76242 22.1421 4.93434C22.0709 5.10627 21.9665 5.26248 21.8349 5.39406L10.0019 17.2261Z" stroke="white" stroke-width="2" stroke-linecap="round" stroke-linejoin="round"/>
<path d="M16.8479 3.92383L20.0759 7.15283" stroke="white" stroke-width="2" stroke-linecap="round" stroke-linejoin="round"/>
</g>
<defs>
<clipPath id="clip0_2_1552">
<rect width="24" height="24" fill="white"/>
</clipPath>
</defs>
</svg>
