<svg width="16" height="19" viewBox="0 0 16 19" fill="none" xmlns="http://www.w3.org/2000/svg">
<path fill-rule="evenodd" clip-rule="evenodd" d="M12.9502 3.06211C15.6838 5.81864 15.6838 10.2636 12.9502 13.0201L8.00018 18.0001L3.05018 13.0211C0.316606 10.2646 0.316606 5.81964 3.05018 3.06311C4.35902 1.74291 6.14095 1.00019 7.99997 1C9.85899 0.999812 11.6411 1.74218 12.9502 3.06211ZM10.8002 7.61132C10.782 9.15329 9.52047 10.3903 7.97844 10.3782C6.43641 10.3662 5.19441 9.10952 5.2004 7.56745C5.20639 6.02538 6.45811 4.77843 8.00018 4.77832C9.55559 4.78768 10.809 6.05591 10.8002 7.61132Z" fill="#45BF65"/>
<path d="M12.9502 3.06211L13.3052 2.71003L13.3052 2.71001L12.9502 3.06211ZM12.9502 13.0201L13.3048 13.3726L13.3052 13.3722L12.9502 13.0201ZM8.00018 18.0001L7.6456 18.3526C7.73946 18.447 7.86709 18.5001 8.00021 18.5001C8.13333 18.5001 8.26096 18.447 8.3548 18.3526L8.00018 18.0001ZM3.05018 13.0211L2.69515 13.3732L2.6956 13.3736L3.05018 13.0211ZM3.05018 3.06311L3.40521 3.41518L3.40526 3.41513L3.05018 3.06311ZM7.99997 1L8.00003 1.5L7.99997 1ZM10.8002 7.61132L11.3002 7.61721L11.3002 7.61417L10.8002 7.61132ZM7.97844 10.3782L7.98236 9.87825L7.98236 9.87825L7.97844 10.3782ZM5.2004 7.56745L5.7004 7.56939L5.2004 7.56745ZM8.00018 4.77832L8.00319 4.27832L8.00015 4.27832L8.00018 4.77832ZM12.5952 3.41418C15.1354 5.97579 15.1354 10.1064 12.5952 12.668L13.3052 13.3722C16.2321 10.4207 16.2321 5.66149 13.3052 2.71003L12.5952 3.41418ZM12.5956 12.6676L7.64556 17.6476L8.3548 18.3526L13.3048 13.3726L12.5956 12.6676ZM8.35477 17.6476L3.40477 12.6686L2.6956 13.3736L7.6456 18.3526L8.35477 17.6476ZM3.40521 12.669C0.864929 10.1074 0.864929 5.97679 3.40521 3.41518L2.69515 2.71103C-0.231718 5.66249 -0.231718 10.4217 2.69515 13.3732L3.40521 12.669ZM3.40526 3.41513C4.62022 2.18963 6.27434 1.50017 8.00003 1.5L7.99992 0.5C6.00756 0.500201 4.09782 1.2962 2.69511 2.71108L3.40526 3.41513ZM8.00003 1.5C9.72571 1.49983 11.38 2.18894 12.5952 3.4142L13.3052 2.71001C11.9022 1.29541 9.99228 0.499799 7.99992 0.5L8.00003 1.5ZM10.3002 7.60543C10.2853 8.87205 9.24903 9.88817 7.98236 9.87825L7.97453 10.8782C9.79192 10.8925 11.2787 9.43454 11.3001 7.61721L10.3002 7.60543ZM7.98236 9.87825C6.71569 9.86833 5.69548 8.83609 5.7004 7.56939L4.7004 7.56551C4.69335 9.38294 6.15713 10.864 7.97453 10.8782L7.98236 9.87825ZM5.7004 7.56939C5.70531 6.30269 6.73351 5.27841 8.00022 5.27832L8.00015 4.27832C6.1827 4.27845 4.70746 5.74807 4.7004 7.56551L5.7004 7.56939ZM7.99718 5.27831C9.27651 5.28601 10.3075 6.32914 10.3002 7.60847L11.3002 7.61417C11.3106 5.78269 9.83467 4.28935 8.00319 4.27833L7.99718 5.27831Z" fill="#45BF65"/>
<path d="M12.9502 3.06211L13.3052 2.71003L13.3052 2.71001L12.9502 3.06211ZM12.9502 13.0201L13.3048 13.3726L13.3052 13.3722L12.9502 13.0201ZM8.00018 18.0001L7.6456 18.3526C7.73946 18.447 7.86709 18.5001 8.00021 18.5001C8.13333 18.5001 8.26096 18.447 8.3548 18.3526L8.00018 18.0001ZM3.05018 13.0211L2.69515 13.3732L2.6956 13.3736L3.05018 13.0211ZM3.05018 3.06311L3.40521 3.41518L3.40526 3.41513L3.05018 3.06311ZM7.99997 1L8.00003 1.5L7.99997 1ZM10.8002 7.61132L11.3002 7.61721L11.3002 7.61417L10.8002 7.61132ZM7.97844 10.3782L7.98236 9.87825L7.98236 9.87825L7.97844 10.3782ZM5.2004 7.56745L5.7004 7.56939L5.2004 7.56745ZM8.00018 4.77832L8.00319 4.27832L8.00015 4.27832L8.00018 4.77832ZM12.5952 3.41418C15.1354 5.97579 15.1354 10.1064 12.5952 12.668L13.3052 13.3722C16.2321 10.4207 16.2321 5.66149 13.3052 2.71003L12.5952 3.41418ZM12.5956 12.6676L7.64556 17.6476L8.3548 18.3526L13.3048 13.3726L12.5956 12.6676ZM8.35477 17.6476L3.40477 12.6686L2.6956 13.3736L7.6456 18.3526L8.35477 17.6476ZM3.40521 12.669C0.864929 10.1074 0.864929 5.97679 3.40521 3.41518L2.69515 2.71103C-0.231718 5.66249 -0.231718 10.4217 2.69515 13.3732L3.40521 12.669ZM3.40526 3.41513C4.62022 2.18963 6.27434 1.50017 8.00003 1.5L7.99992 0.5C6.00756 0.500201 4.09782 1.2962 2.69511 2.71108L3.40526 3.41513ZM8.00003 1.5C9.72571 1.49983 11.38 2.18894 12.5952 3.4142L13.3052 2.71001C11.9022 1.29541 9.99228 0.499799 7.99992 0.5L8.00003 1.5ZM10.3002 7.60543C10.2853 8.87205 9.24903 9.88817 7.98236 9.87825L7.97453 10.8782C9.79192 10.8925 11.2787 9.43454 11.3001 7.61721L10.3002 7.60543ZM7.98236 9.87825C6.71569 9.86833 5.69548 8.83609 5.7004 7.56939L4.7004 7.56551C4.69335 9.38294 6.15713 10.864 7.97453 10.8782L7.98236 9.87825ZM5.7004 7.56939C5.70531 6.30269 6.73351 5.27841 8.00022 5.27832L8.00015 4.27832C6.1827 4.27845 4.70746 5.74807 4.7004 7.56551L5.7004 7.56939ZM7.99718 5.27831C9.27651 5.28601 10.3075 6.32914 10.3002 7.60847L11.3002 7.61417C11.3106 5.78269 9.83467 4.28935 8.00319 4.27833L7.99718 5.27831Z" fill="black" fill-opacity="0.2"/>
</svg>
