<svg width="26" height="20" viewBox="0 0 26 20" fill="none" xmlns="http://www.w3.org/2000/svg">
<path fill-rule="evenodd" clip-rule="evenodd" d="M1.125 6.63494L16.6125 2.59619V17.4037L10.3113 15.6724C10.4159 17.2274 9.2724 18.5868 7.7225 18.7499C6.14403 18.5791 4.99256 17.1765 5.1325 15.5949V14.5187L1.125 13.3649V6.63494Z" stroke="black" stroke-width="2" stroke-linecap="round" stroke-linejoin="round"/>
<path d="M24.875 10.2587C25.4273 10.2587 25.875 9.81104 25.875 9.25875C25.875 8.70647 25.4273 8.25875 24.875 8.25875V10.2587ZM22.545 8.25875C21.9927 8.25875 21.545 8.70647 21.545 9.25875C21.545 9.81104 21.9927 10.2587 22.545 10.2587V8.25875ZM21.4334 16.6251C21.8214 17.0181 22.4545 17.0221 22.8476 16.6341C23.2406 16.2461 23.2446 15.613 22.8566 15.2199L21.4334 16.6251ZM21.2116 13.5537C20.8236 13.1607 20.1905 13.1566 19.7974 13.5446C19.4044 13.9326 19.4004 14.5658 19.7884 14.9588L21.2116 13.5537ZM22.8586 3.29934C23.2469 2.90662 23.2433 2.27346 22.8506 1.88515C22.4579 1.49685 21.8247 1.50043 21.4364 1.89316L22.8586 3.29934ZM19.7889 3.55941C19.4006 3.95213 19.4042 4.58529 19.7969 4.9736C20.1896 5.3619 20.8228 5.35832 21.2111 4.96559L19.7889 3.55941ZM17.6125 17.4038C17.6125 16.8515 17.1648 16.4038 16.6125 16.4038C16.0602 16.4038 15.6125 16.8515 15.6125 17.4038H17.6125ZM15.6125 18.75C15.6125 19.3023 16.0602 19.75 16.6125 19.75C17.1648 19.75 17.6125 19.3023 17.6125 18.75H15.6125ZM15.6125 2.59625C15.6125 3.14853 16.0602 3.59625 16.6125 3.59625C17.1648 3.59625 17.6125 3.14853 17.6125 2.59625H15.6125ZM17.6125 1.25C17.6125 0.697715 17.1648 0.25 16.6125 0.25C16.0602 0.25 15.6125 0.697715 15.6125 1.25H17.6125ZM0.125 6.635C0.125 7.18728 0.572715 7.635 1.125 7.635C1.67728 7.635 2.125 7.18728 2.125 6.635H0.125ZM2.125 5.28875C2.125 4.73646 1.67728 4.28875 1.125 4.28875C0.572715 4.28875 0.125 4.73646 0.125 5.28875H2.125ZM0.125 14.7113C0.125 15.2635 0.572715 15.7113 1.125 15.7113C1.67728 15.7113 2.125 15.2635 2.125 14.7113H0.125ZM2.125 13.365C2.125 12.8127 1.67728 12.365 1.125 12.365C0.572715 12.365 0.125 12.8127 0.125 13.365H2.125ZM5.34995 13.5427C4.81089 13.4226 4.27653 13.7622 4.15643 14.3013C4.03633 14.8404 4.37598 15.3747 4.91505 15.4948L5.34995 13.5427ZM10.0938 16.6486C10.6329 16.7687 11.1672 16.429 11.2873 15.89C11.4074 15.3509 11.0678 14.8165 10.5287 14.6964L10.0938 16.6486ZM24.875 8.25875H22.545V10.2587H24.875V8.25875ZM22.8566 15.2199L21.2116 13.5537L19.7884 14.9588L21.4334 16.6251L22.8566 15.2199ZM21.4364 1.89316L19.7889 3.55941L21.2111 4.96559L22.8586 3.29934L21.4364 1.89316ZM15.6125 17.4038V18.75H17.6125V17.4038H15.6125ZM17.6125 2.59625V1.25H15.6125V2.59625H17.6125ZM2.125 6.635V5.28875H0.125V6.635H2.125ZM2.125 14.7113V13.365H0.125V14.7113H2.125ZM4.91505 15.4948L10.0938 16.6486L10.5287 14.6964L5.34995 13.5427L4.91505 15.4948Z" fill="black"/>
</svg>
