<svg width="20" height="21" viewBox="0 0 20 21" fill="none" xmlns="http://www.w3.org/2000/svg">
<path fill-rule="evenodd" clip-rule="evenodd" d="M15.9562 1.20289L18.3875 3.18164C18.6222 3.41037 18.7538 3.72477 18.7519 4.05252C18.75 4.38026 18.6148 4.69313 18.3775 4.91914L16.53 7.16914L10.2425 14.8404C10.1336 14.9686 9.98708 15.0591 9.82374 15.0991L6.56374 15.8491C6.13118 15.867 5.75815 15.548 5.70874 15.1179L5.86124 11.9016C5.87254 11.7374 5.93755 11.5815 6.04624 11.4579L12.0625 4.12664L14.1812 1.54164C14.5929 0.981313 15.3672 0.833548 15.9562 1.20289Z" stroke="black" stroke-width="2" stroke-linecap="round" stroke-linejoin="round"/>
<path d="M1.25 18.7392C0.697715 18.7392 0.25 19.1869 0.25 19.7392C0.25 20.2915 0.697715 20.7392 1.25 20.7392V18.7392ZM18.375 20.7392C18.9273 20.7392 19.375 20.2915 19.375 19.7392C19.375 19.1869 18.9273 18.7392 18.375 18.7392V20.7392ZM12.9898 3.75242C12.7831 3.24028 12.2003 2.99268 11.6882 3.1994C11.1761 3.40611 10.9285 3.98886 11.1352 4.501L12.9898 3.75242ZM16.7504 8.14838C17.2891 8.02668 17.6271 7.49131 17.5054 6.9526C17.3837 6.41389 16.8484 6.07584 16.3096 6.19754L16.7504 8.14838ZM1.25 20.7392H18.375V18.7392H1.25V20.7392ZM11.1352 4.501C11.4287 5.2282 12.031 6.26408 12.9291 7.06273C13.8447 7.87699 15.1544 8.50891 16.7504 8.14838L16.3096 6.19754C15.5318 6.37326 14.8578 6.10143 14.2581 5.56819C13.6409 5.01934 13.1963 4.26397 12.9898 3.75242L11.1352 4.501Z" fill="black"/>
</svg>
