<svg width="16" height="16" viewBox="0 0 16 16" fill="none" xmlns="http://www.w3.org/2000/svg">
<path d="M1.04289 13.5429C0.652369 13.9334 0.652369 14.5666 1.04289 14.9571C1.43342 15.3476 2.06658 15.3476 2.45711 14.9571L1.04289 13.5429ZM8.70711 8.70711C9.09763 8.31658 9.09763 7.68342 8.70711 7.29289C8.31658 6.90237 7.68342 6.90237 7.29289 7.29289L8.70711 8.70711ZM7.29289 7.29289C6.90237 7.68342 6.90237 8.31658 7.29289 8.70711C7.68342 9.09763 8.31658 9.09763 8.70711 8.70711L7.29289 7.29289ZM14.9571 2.45711C15.3476 2.06658 15.3476 1.43342 14.9571 1.04289C14.5666 0.652369 13.9334 0.652369 13.5429 1.04289L14.9571 2.45711ZM8.70711 7.29289C8.31658 6.90237 7.68342 6.90237 7.29289 7.29289C6.90237 7.68342 6.90237 8.31658 7.29289 8.70711L8.70711 7.29289ZM13.5429 14.9571C13.9334 15.3476 14.5666 15.3476 14.9571 14.9571C15.3476 14.5666 15.3476 13.9334 14.9571 13.5429L13.5429 14.9571ZM7.29289 8.70711C7.68342 9.09763 8.31658 9.09763 8.70711 8.70711C9.09763 8.31658 9.09763 7.68342 8.70711 7.29289L7.29289 8.70711ZM2.45711 1.04289C2.06658 0.652369 1.43342 0.652369 1.04289 1.04289C0.652369 1.43342 0.652369 2.06658 1.04289 2.45711L2.45711 1.04289ZM2.45711 14.9571L8.70711 8.70711L7.29289 7.29289L1.04289 13.5429L2.45711 14.9571ZM8.70711 8.70711L14.9571 2.45711L13.5429 1.04289L7.29289 7.29289L8.70711 8.70711ZM7.29289 8.70711L13.5429 14.9571L14.9571 13.5429L8.70711 7.29289L7.29289 8.70711ZM8.70711 7.29289L2.45711 1.04289L1.04289 2.45711L7.29289 8.70711L8.70711 7.29289Z" fill="black"/>
</svg>
