<svg width="22" height="20" viewBox="0 0 22 20" fill="none" xmlns="http://www.w3.org/2000/svg">
<path fill-rule="evenodd" clip-rule="evenodd" d="M9.75 3.75C9.75 5.13071 8.63071 6.25 7.25 6.25C5.86929 6.25 4.75 5.13071 4.75 3.75C4.75 2.36929 5.86929 1.25 7.25 1.25C8.63071 1.25 9.75 2.36929 9.75 3.75Z" stroke="black" stroke-width="2" stroke-linecap="round" stroke-linejoin="round"/>
<path fill-rule="evenodd" clip-rule="evenodd" d="M13.5 14.375C13.5 16.7912 10.7012 18.75 7.25 18.75C3.79875 18.75 1 16.7912 1 14.375C1 11.9588 3.79875 10 7.25 10C10.7012 10 13.5 11.9588 13.5 14.375Z" stroke="black" stroke-width="2" stroke-linecap="round" stroke-linejoin="round"/>
<path d="M19.5 1.25C19.5 0.697715 19.0523 0.25 18.5 0.25C17.9477 0.25 17.5 0.697715 17.5 1.25H19.5ZM17.5 3.75C17.5 4.30228 17.9477 4.75 18.5 4.75C19.0523 4.75 19.5 4.30228 19.5 3.75H17.5ZM19.5 3.75C19.5 3.19772 19.0523 2.75 18.5 2.75C17.9477 2.75 17.5 3.19772 17.5 3.75H19.5ZM17.5 6.25C17.5 6.80228 17.9477 7.25 18.5 7.25C19.0523 7.25 19.5 6.80228 19.5 6.25H17.5ZM18.5 4.75C19.0523 4.75 19.5 4.30228 19.5 3.75C19.5 3.19772 19.0523 2.75 18.5 2.75V4.75ZM16 2.75C15.4477 2.75 15 3.19772 15 3.75C15 4.30228 15.4477 4.75 16 4.75V2.75ZM18.5 2.75C17.9477 2.75 17.5 3.19772 17.5 3.75C17.5 4.30228 17.9477 4.75 18.5 4.75V2.75ZM21 4.75C21.5523 4.75 22 4.30228 22 3.75C22 3.19772 21.5523 2.75 21 2.75V4.75ZM17.5 1.25V3.75H19.5V1.25H17.5ZM17.5 3.75V6.25H19.5V3.75H17.5ZM18.5 2.75H16V4.75H18.5V2.75ZM18.5 4.75H21V2.75H18.5V4.75Z" fill="black"/>
</svg>
