<svg width="20" height="24" viewBox="0 0 20 24" fill="none" xmlns="http://www.w3.org/2000/svg">
<path fill-rule="evenodd" clip-rule="evenodd" d="M11.7499 7.0525C11.7382 8.01615 10.9496 8.78897 9.98588 8.78119C9.02219 8.77342 8.24616 7.98796 8.25001 7.02425C8.25387 6.06054 9.03615 5.28132 9.99987 5.28125C10.4669 5.28389 10.9137 5.47203 11.2419 5.80425C11.5701 6.13646 11.7529 6.5855 11.7499 7.0525V7.0525Z" stroke="black" stroke-width="1.5" stroke-linecap="round" stroke-linejoin="round"/>
<path d="M6.83375 12.48C7.38603 12.48 7.83375 12.0323 7.83375 11.48C7.83375 10.9277 7.38603 10.48 6.83375 10.48V12.48ZM2.5 11.48V10.48C1.98947 10.48 1.56091 10.8646 1.50584 11.3721L2.5 11.48ZM0.880835 17.1321C0.821258 17.6812 1.21806 18.1746 1.76713 18.2341C2.31619 18.2937 2.80959 17.8969 2.86916 17.3479L0.880835 17.1321ZM6.19187 12.2568C6.61537 12.6113 7.24606 12.5554 7.60056 12.1319C7.95506 11.7084 7.89912 11.0777 7.47563 10.7232L6.19187 12.2568ZM6.61125 11.3037L5.95781 12.0607C5.96164 12.064 5.96549 12.0673 5.96937 12.0705L6.61125 11.3037ZM6.61125 3.16623L5.97614 2.39381C5.96997 2.39888 5.96386 2.40403 5.95781 2.40925L6.61125 3.16623ZM13.3875 3.16623L14.0409 2.40925C14.0318 2.40136 14.0225 2.39364 14.0131 2.38609L13.3875 3.16623ZM13.3875 11.3037L14.0294 12.0705C14.0333 12.0673 14.0371 12.064 14.0409 12.0607L13.3875 11.3037ZM12.5231 10.7232C12.0996 11.0777 12.0437 11.7084 12.3982 12.1319C12.7527 12.5554 13.3834 12.6113 13.8069 12.2568L12.5231 10.7232ZM7.47203 10.7212C7.04745 10.368 6.41693 10.4259 6.06373 10.8505C5.71053 11.275 5.76839 11.9055 6.19297 12.2587L7.47203 10.7212ZM7.77672 13.5762C8.2013 13.9295 8.83182 13.8716 9.18502 13.447C9.53822 13.0224 9.48036 12.3919 9.05578 12.0387L7.77672 13.5762ZM13.1662 10.4787C12.614 10.4787 12.1662 10.9264 12.1662 11.4787C12.1662 12.031 12.614 12.4787 13.1662 12.4787V10.4787ZM17.5 11.4787L18.4941 11.3707C18.439 10.8632 18.0105 10.4787 17.5 10.4787V11.4787ZM17.1309 17.3368C17.1905 17.8858 17.684 18.2826 18.2331 18.2229C18.7821 18.1632 19.1788 17.6697 19.1191 17.1207L17.1309 17.3368ZM13.8091 12.2447C14.2322 11.8896 14.2873 11.2589 13.9322 10.8358C13.5772 10.4128 12.9464 10.3577 12.5234 10.7128L13.8091 12.2447ZM10 14.1362L9.35726 14.9023C9.72906 15.2142 10.2712 15.2142 10.6429 14.9022L10 14.1362ZM9.05899 12.0414C8.63589 11.6864 8.00514 11.7416 7.65016 12.1647C7.29519 12.5878 7.35041 13.2186 7.77351 13.5736L9.05899 12.0414ZM2.86914 17.348C2.92882 16.799 2.53211 16.3055 1.98306 16.2458C1.43401 16.1862 0.940535 16.5829 0.880856 17.1319L2.86914 17.348ZM1.25 22.99L0.255856 22.8819C0.225164 23.1643 0.315992 23.4464 0.505668 23.6578C0.695345 23.8692 0.965973 23.99 1.25 23.99V22.99ZM8.75 23.99C9.30229 23.99 9.75 23.5423 9.75 22.99C9.75 22.4377 9.30229 21.99 8.75 21.99V23.99ZM1.31454 16.4118C0.85715 16.7213 0.737285 17.343 1.04682 17.8004C1.35635 18.2578 1.97806 18.3777 2.43546 18.0682L1.31454 16.4118ZM5.70671 15.8544C6.1641 15.5449 6.28397 14.9232 5.97443 14.4658C5.6649 14.0084 5.04319 13.8885 4.58579 14.198L5.70671 15.8544ZM8.97685 13.6356C9.43419 13.326 9.55395 12.7042 9.24433 12.2469C8.93472 11.7895 8.31298 11.6698 7.85565 11.9794L8.97685 13.6356ZM4.58565 14.1931C4.12831 14.5028 4.00855 15.1245 4.31817 15.5818C4.62778 16.0392 5.24952 16.1589 5.70685 15.8493L4.58565 14.1931ZM6.05741 14.6092C5.82983 14.106 5.23741 13.8825 4.73419 14.1101C4.23097 14.3376 4.00752 14.9301 4.23509 15.4333L6.05741 14.6092ZM7.83884 23.402C8.06642 23.9053 8.65884 24.1287 9.16206 23.9011C9.66528 23.6736 9.88873 23.0811 9.66116 22.5779L7.83884 23.402ZM8.75 21.99C8.19772 21.99 7.75 22.4377 7.75 22.99C7.75 23.5423 8.19772 23.99 8.75 23.99V21.99ZM12.5 23.99C13.0523 23.99 13.5 23.5423 13.5 22.99C13.5 22.4377 13.0523 21.99 12.5 21.99V23.99ZM12.5 21.99C11.9477 21.99 11.5 22.4377 11.5 22.99C11.5 23.5423 11.9477 23.99 12.5 23.99V21.99ZM18.75 22.99V23.99C19.034 23.99 19.3047 23.8692 19.4943 23.6578C19.684 23.4464 19.7748 23.1643 19.7441 22.8819L18.75 22.99ZM19.1191 17.1319C19.0595 16.5829 18.566 16.1862 18.0169 16.2458C17.4679 16.3055 17.0712 16.799 17.1309 17.348L19.1191 17.1319ZM11.7852 22.2907C11.399 22.6855 11.4059 23.3186 11.8007 23.7048C12.1955 24.091 12.8286 24.0841 13.2148 23.6893L11.7852 22.2907ZM18.8398 17.9393C19.226 17.5445 19.2191 16.9114 18.8243 16.5251C18.4295 16.1389 17.7964 16.1459 17.4102 16.5407L18.8398 17.9393ZM6.83375 10.48H2.5V12.48H6.83375V10.48ZM1.50584 11.3721L0.880835 17.1321L2.86916 17.3479L3.49416 11.5879L1.50584 11.3721ZM7.47563 10.7232L7.25313 10.5369L5.96937 12.0705L6.19187 12.2568L7.47563 10.7232ZM7.26469 10.5468C6.30195 9.71569 5.7485 8.50681 5.7485 7.23498H3.7485C3.7485 9.08822 4.55495 10.8497 5.95781 12.0607L7.26469 10.5468ZM5.7485 7.23498C5.7485 5.96315 6.30195 4.75427 7.26469 3.92321L5.95781 2.40925C4.55495 3.62024 3.7485 5.38174 3.7485 7.23498H5.7485ZM7.24636 3.93866C8.37845 3.00782 9.3131 2.71722 10.1162 2.7529C10.9391 2.78946 11.801 3.17579 12.7619 3.94637L14.0131 2.38609C12.8728 1.47167 11.6121 0.817379 10.205 0.754872C8.77815 0.691488 7.3753 1.24339 5.97614 2.39381L7.24636 3.93866ZM12.7341 3.92321C13.6968 4.75427 14.2502 5.96315 14.2502 7.23498H16.2502C16.2502 5.38174 15.4438 3.62024 14.0409 2.40925L12.7341 3.92321ZM14.2502 7.23498C14.2502 8.50681 13.6968 9.71569 12.7341 10.5468L14.0409 12.0607C15.4438 10.8497 16.2502 9.08822 16.2502 7.23498H14.2502ZM12.7456 10.5369L12.5231 10.7232L13.8069 12.2568L14.0294 12.0705L12.7456 10.5369ZM6.19297 12.2587L7.77672 13.5762L9.05578 12.0387L7.47203 10.7212L6.19297 12.2587ZM13.1662 12.4787H17.5V10.4787H13.1662V12.4787ZM16.5059 11.5868L17.1309 17.3368L19.1191 17.1207L18.4941 11.3707L16.5059 11.5868ZM12.5234 10.7128L9.35711 13.3703L10.6429 14.9022L13.8091 12.2447L12.5234 10.7128ZM10.6427 13.3701L9.05899 12.0414L7.77351 13.5736L9.35726 14.9023L10.6427 13.3701ZM0.880856 17.1319L0.255856 22.8819L2.24414 23.098L2.86914 17.348L0.880856 17.1319ZM1.25 23.99H8.75V21.99H1.25V23.99ZM2.43546 18.0682L5.70671 15.8544L4.58579 14.198L1.31454 16.4118L2.43546 18.0682ZM7.85565 11.9794L4.58565 14.1931L5.70685 15.8493L8.97685 13.6356L7.85565 11.9794ZM4.23509 15.4333L7.83884 23.402L9.66116 22.5779L6.05741 14.6092L4.23509 15.4333ZM8.75 23.99H12.5V21.99H8.75V23.99ZM12.5 23.99H18.75V21.99H12.5V23.99ZM19.7441 22.8819L19.1191 17.1319L17.1309 17.348L17.7559 23.098L19.7441 22.8819ZM13.2148 23.6893L18.8398 17.9393L17.4102 16.5407L11.7852 22.2907L13.2148 23.6893Z" fill="black"/>
</svg>
