<svg width="23" height="23" viewBox="0 0 23 23" fill="none" xmlns="http://www.w3.org/2000/svg">
<path d="M5.83781 9.103C5.28553 9.103 4.83781 9.55072 4.83781 10.103C4.83781 10.6553 5.28553 11.103 5.83781 11.103V9.103ZM13.7647 11.103C14.317 11.103 14.7647 10.6553 14.7647 10.103C14.7647 9.55072 14.317 9.103 13.7647 9.103V11.103ZM6.82506 12.0015C6.27278 12.0015 5.82506 12.4492 5.82506 13.0015C5.82506 13.5538 6.27278 14.0015 6.82506 14.0015V12.0015ZM12.7733 14.0015C13.3256 14.0015 13.7733 13.5538 13.7733 13.0015C13.7733 12.4492 13.3256 12.0015 12.7733 12.0015V14.0015ZM5.17375 4.3427C4.62903 4.43379 4.26129 4.94922 4.35238 5.49394C4.44348 6.03866 4.9589 6.4064 5.50363 6.3153L5.17375 4.3427ZM6.02619 5.27262L6.02412 6.27262H6.02619V5.27262ZM13.5887 5.27262L13.5962 4.27262H13.5887V5.27262ZM17.7357 9.4815L16.7357 9.47423V9.4815H17.7357ZM17.7357 14.591H16.7357L16.7357 14.5921L17.7357 14.591ZM16.6851 15.1712C16.5886 15.715 16.9512 16.234 17.495 16.3305C18.0388 16.427 18.5579 16.0643 18.6543 15.5205L16.6851 15.1712ZM5.5125 6.31378C6.05638 6.21778 6.41946 5.69907 6.32347 5.15519C6.22747 4.61131 5.70875 4.24823 5.16487 4.34422L5.5125 6.31378ZM1.87506 9.48012H2.87508L2.87505 9.47474L1.87506 9.48012ZM1.87506 21.125H0.875062C0.875062 21.48 1.06329 21.8084 1.36962 21.9879C1.67595 22.1673 2.05445 22.1709 2.36411 21.9973L1.87506 21.125ZM6.02206 18.7999V17.7999C5.85079 17.7999 5.6824 17.8439 5.53301 17.9276L6.02206 18.7999ZM13.5846 18.7999V19.7999L13.5911 19.7999L13.5846 18.7999ZM18.6465 15.5219C18.7415 14.9779 18.3774 14.4598 17.8334 14.3649C17.2893 14.2699 16.7713 14.634 16.6763 15.1781L18.6465 15.5219ZM4.35341 5.15806C4.259 5.70222 4.62359 6.21987 5.16775 6.31428C5.7119 6.40869 6.22956 6.0441 6.32397 5.49994L4.35341 5.15806ZM9.41969 1.875V0.874984L9.41394 0.875017L9.41969 1.875ZM16.9822 1.875L16.9907 0.875H16.9822V1.875ZM21.1251 6.08388L20.1251 6.0766V6.08388H21.1251ZM21.1251 11.1934H20.125L20.1251 11.2001L21.1251 11.1934ZM17.4876 14.3652C16.9438 14.4612 16.5807 14.9799 16.6767 15.5238C16.7726 16.0677 17.2914 16.4308 17.8352 16.3348L17.4876 14.3652ZM5.83781 11.103H13.7647V9.103H5.83781V11.103ZM6.82506 14.0015H12.7733V12.0015H6.82506V14.0015ZM5.50363 6.3153C5.67563 6.28654 5.84974 6.27226 6.02412 6.27262L6.02825 4.27263C5.74196 4.27204 5.45612 4.29548 5.17375 4.3427L5.50363 6.3153ZM6.02619 6.27262H13.5887V4.27262H6.02619V6.27262ZM13.5811 6.2726C15.3363 6.28583 16.7485 7.71911 16.7357 9.47423L18.7357 9.48877C18.7564 6.62932 16.4557 4.29422 13.5962 4.27265L13.5811 6.2726ZM16.7357 9.4815V14.591H18.7357V9.4815H16.7357ZM16.7357 14.5921C16.7359 14.7863 16.719 14.9801 16.6851 15.1712L18.6543 15.5205C18.7088 15.2133 18.736 14.9019 18.7357 14.5899L16.7357 14.5921ZM5.16487 4.34422C2.67333 4.78398 0.861459 6.95549 0.875076 9.48551L2.87505 9.47474C2.86668 7.91924 3.98065 6.58415 5.5125 6.31378L5.16487 4.34422ZM0.875062 9.48012V21.125H2.87506V9.48012H0.875062ZM2.36411 21.9973L6.51111 19.6721L5.53301 17.9276L1.38601 20.2527L2.36411 21.9973ZM6.02206 19.7999H13.5846V17.7999H6.02206V19.7999ZM13.5911 19.7999C16.0888 19.7835 18.2171 17.9825 18.6465 15.5219L16.6763 15.1781C16.4131 16.6861 15.1088 17.7899 13.578 17.7999L13.5911 19.7999ZM6.32397 5.49994C6.58602 3.98952 7.89247 2.88379 9.42543 2.87498L9.41394 0.875017C6.91267 0.889382 4.78098 2.69357 4.35341 5.15806L6.32397 5.49994ZM9.41969 2.875H16.9822V0.875H9.41969V2.875ZM16.9737 2.87496C18.7275 2.88992 20.1378 4.3227 20.1251 6.0766L22.125 6.09115C22.1458 3.23369 19.8482 0.899408 16.9907 0.875036L16.9737 2.87496ZM20.1251 6.08388V11.1934H22.1251V6.08388H20.1251ZM20.1251 11.2001C20.1355 12.7572 19.021 14.0946 17.4876 14.3652L17.8352 16.3348C20.3293 15.8946 22.142 13.7193 22.125 11.1867L20.1251 11.2001Z" fill="black"/>
</svg>
