<svg width="18" height="24" viewBox="0 0 18 24" fill="none" xmlns="http://www.w3.org/2000/svg">
<path fill-rule="evenodd" clip-rule="evenodd" d="M16.5088 20.8162V3.5425C16.5145 2.87382 16.2543 2.23027 15.7854 1.75346C15.3166 1.27664 14.6775 1.00561 14.0088 1H4.00881C3.34013 1.00561 2.70106 1.27664 2.23222 1.75346C1.76337 2.23027 1.50315 2.87382 1.50881 3.5425V20.8162C1.44938 21.315 1.69426 21.8009 2.13052 22.0498C2.56677 22.2988 3.10966 22.2624 3.50881 21.9575L8.25881 17.8563C8.68701 17.4698 9.33812 17.4698 9.76631 17.8563L14.5088 21.9588C14.9081 22.2639 15.4514 22.3002 15.8878 22.0509C16.3242 21.8016 16.5688 21.3152 16.5088 20.8162Z" stroke="black" stroke-width="2" stroke-linecap="round" stroke-linejoin="round"/>
</svg>
