<svg width="18" height="24" viewBox="0 0 18 24" fill="none" xmlns="http://www.w3.org/2000/svg">
<path fill-rule="evenodd" clip-rule="evenodd" d="M12.8967 8.98975H5.10334C2.77793 9.04705 0.94244 10.8201 1.00138 12.9522V17.7641C0.94244 19.8962 2.77793 21.6692 5.10334 21.7265H12.8967C15.2221 21.6692 17.0576 19.8962 16.9986 17.7641V12.9522C17.0576 10.8201 15.2221 9.04705 12.8967 8.98975V8.98975Z" stroke="black" stroke-width="2" stroke-linecap="round" stroke-linejoin="round"/>
<path d="M4.00051 8.98967C4.00051 9.54195 4.44822 9.98967 5.00051 9.98967C5.55279 9.98967 6.00051 9.54195 6.00051 8.98967H4.00051ZM5.00051 3.27456H6.00051L6.0005 3.27043L5.00051 3.27456ZM7.46141 1V-7.7486e-06L7.45747 7.80821e-06L7.46141 1ZM10.5382 1L10.5422 0H10.5382V1ZM12.9991 3.27456L11.9991 3.27043V3.27456H12.9991ZM11.9991 8.99089C11.9991 9.54317 12.4468 9.99089 12.9991 9.99089C13.5514 9.99089 13.9991 9.54317 13.9991 8.99089H11.9991ZM11.9991 23.0001C11.9991 23.5524 12.4468 24.0001 12.9991 24.0001C13.5514 24.0001 13.9991 23.5524 13.9991 23.0001H11.9991ZM13.9991 21.7265C13.9991 21.1742 13.5514 20.7265 12.9991 20.7265C12.4468 20.7265 11.9991 21.1742 11.9991 21.7265H13.9991ZM4.00078 23.0001C4.00078 23.5524 4.4485 24.0001 5.00078 24.0001C5.55306 24.0001 6.00078 23.5524 6.00078 23.0001H4.00078ZM6.00078 21.7265C6.00078 21.1742 5.55306 20.7265 5.00078 20.7265C4.4485 20.7265 4.00078 21.1742 4.00078 21.7265H6.00078ZM6.33374 12.4474C5.78146 12.4474 5.33374 12.8951 5.33374 13.4474C5.33374 13.9997 5.78146 14.4474 6.33374 14.4474V12.4474ZM11.6662 14.4474C12.2184 14.4474 12.6662 13.9997 12.6662 13.4474C12.6662 12.8951 12.2184 12.4474 11.6662 12.4474V14.4474ZM6.33374 16.2692C5.78146 16.2692 5.33374 16.7169 5.33374 17.2692C5.33374 17.8215 5.78146 18.2692 6.33374 18.2692V16.2692ZM11.6662 18.2692C12.2184 18.2692 12.6662 17.8215 12.6662 17.2692C12.6662 16.7169 12.2184 16.2692 11.6662 16.2692V18.2692ZM6.00051 8.98967V3.27456H4.00051V8.98967H6.00051ZM6.0005 3.27043C5.99794 2.65176 6.56968 2.00353 7.46536 1.99999L7.45747 7.80821e-06C5.62416 0.00724858 3.99274 1.39534 4.00051 3.27868L6.0005 3.27043ZM7.46141 2H10.5382V0H7.46141V2ZM10.5343 1.99999C11.4299 2.00353 12.0017 2.65176 11.9991 3.27043L13.9991 3.27868C14.0069 1.39534 12.3755 0.00724858 10.5422 7.80821e-06L10.5343 1.99999ZM11.9991 3.27456V8.99089H13.9991V3.27456H11.9991ZM13.9991 23.0001V21.7265H11.9991V23.0001H13.9991ZM6.00078 23.0001V21.7265H4.00078V23.0001H6.00078ZM6.33374 14.4474H11.6662V12.4474H6.33374V14.4474ZM6.33374 18.2692H11.6662V16.2692H6.33374V18.2692Z" fill="black"/>
</svg>
