<svg width="77" height="28" viewBox="0 0 77 28" fill="none" xmlns="http://www.w3.org/2000/svg">
<rect width="76.6658" height="27.75" rx="13.875" fill="#D8D8D8"/>
<path d="M40.492 7.282H42.368V20.246H40.492V7.282ZM36.67 8.626H38.518C38.518 12.588 37.174 15.836 32.568 18.062L31.602 16.578C35.326 14.786 36.67 12.434 36.67 8.962V8.626ZM32.288 8.626H37.552V10.096H32.288V8.626ZM44.9429 15.808H46.0349C48.2189 15.808 49.8849 15.78 51.8169 15.472L51.9849 16.956C50.0249 17.264 48.2609 17.32 46.0349 17.32H44.9429V15.808ZM44.9429 8.36H51.0329V9.872H46.8189V16.298H44.9429V8.36ZM46.3709 11.958H50.8509V13.414H46.3709V11.958ZM52.7269 7.282H54.6029V20.246H52.7269V7.282ZM54.1829 12.196H56.4789V13.736H54.1829V12.196Z" fill="#999999"/>
<path fill-rule="evenodd" clip-rule="evenodd" d="M15.3506 14C15.3506 15.1046 14.4552 16 13.3506 16C12.246 16 11.3506 15.1046 11.3506 14C11.3506 12.8954 12.246 12 13.3506 12C13.881 12 14.3897 12.2107 14.7648 12.5858C15.1399 12.9609 15.3506 13.4696 15.3506 14Z" stroke="#999999" stroke-width="1.5" stroke-linecap="round" stroke-linejoin="round"/>
<path fill-rule="evenodd" clip-rule="evenodd" d="M21.3506 14C21.3506 15.1046 20.4552 16 19.3506 16C18.246 16 17.3506 15.1046 17.3506 14C17.3506 12.8954 18.246 12 19.3506 12C20.4552 12 21.3506 12.8954 21.3506 14Z" stroke="#999999" stroke-width="1.5" stroke-linecap="round" stroke-linejoin="round"/>
<path fill-rule="evenodd" clip-rule="evenodd" d="M27.3506 14C27.3506 15.1046 26.4552 16 25.3506 16C24.246 16 23.3506 15.1046 23.3506 14C23.3506 12.8954 24.246 12 25.3506 12C26.4552 12 27.3506 12.8954 27.3506 14Z" stroke="#999999" stroke-width="1.5" stroke-linecap="round" stroke-linejoin="round"/>
</svg>
