<svg width="77" height="28" viewBox="0 0 77 28" fill="none" xmlns="http://www.w3.org/2000/svg">
<rect width="76.6658" height="27.75" rx="13.875" fill="#FFF4E4"/>
<path d="M40.842 7.282H42.606V15.402H40.842V7.282ZM39.26 10.474H41.332V11.986H39.26V10.474ZM38.154 7.534H39.89V14.982H38.154V7.534ZM31.504 8.612H37.79V10.04H31.504V8.612ZM34.668 10.46C36.292 10.46 37.468 11.384 37.468 12.728C37.468 14.072 36.292 14.982 34.668 14.982C33.044 14.982 31.868 14.072 31.868 12.728C31.868 11.384 33.044 10.46 34.668 10.46ZM34.668 11.79C33.982 11.79 33.52 12.126 33.52 12.728C33.52 13.33 33.982 13.666 34.668 13.666C35.34 13.666 35.802 13.33 35.802 12.728C35.802 12.126 35.34 11.79 34.668 11.79ZM33.73 7.408H35.564V9.592H33.73V7.408ZM38.224 15.542C40.996 15.542 42.676 16.382 42.676 17.894C42.676 19.392 40.996 20.246 38.224 20.246C35.438 20.246 33.758 19.392 33.758 17.894C33.758 16.382 35.438 15.542 38.224 15.542ZM38.224 16.928C36.488 16.928 35.62 17.222 35.62 17.894C35.62 18.552 36.488 18.86 38.224 18.86C39.946 18.86 40.814 18.552 40.814 17.894C40.814 17.222 39.946 16.928 38.224 16.928ZM47.3509 8.276H48.8629V10.166C48.8629 13.372 47.7429 16.382 45.2929 17.586L44.1729 16.088C46.3569 15.066 47.3509 12.574 47.3509 10.166V8.276ZM47.7289 8.276H49.2129V10.166C49.2129 12.49 50.1369 14.856 52.2089 15.864L51.0889 17.348C48.7509 16.158 47.7289 13.274 47.7289 10.166V8.276ZM52.7269 7.282H54.6029V20.246H52.7269V7.282ZM54.1829 12.266H56.4789V13.82H54.1829V12.266Z" fill="#EAAB83"/>
<path d="M13.7192 16.3618C13.5698 16.6163 13.4858 16.9042 13.4749 17.1993C13.4749 18.3896 14.5471 18.9064 15.2569 19.2472C15.5004 19.3533 15.7333 19.4823 15.9524 19.6325C15.8934 19.7573 15.8262 19.878 15.7512 19.9939L17.3402 20.9919C17.6361 20.5849 17.8124 20.1028 17.8488 19.6005C17.8488 18.4103 16.7766 17.8928 16.0667 17.552C15.8354 17.4493 15.6127 17.3282 15.4007 17.1899C15.5203 16.9687 15.6528 16.7547 15.7974 16.5491C16.4374 16.3449 17.0297 16.0134 17.5389 15.5745C18.0481 15.1355 18.4638 14.5981 18.7611 13.9944C19.1525 14.7588 19.7711 15.3825 20.5313 15.7792C20.3504 16.2304 20.3069 16.7252 20.4064 17.2012C20.544 17.6045 20.7656 17.9739 21.0564 18.2849C21.3473 18.5958 21.7008 18.8412 22.0935 19.0048C22.9882 19.5159 22.9826 19.5272 22.6696 20.1092L24.3211 21C25.5083 18.7911 23.8274 17.8327 23.0207 17.3716C22.7046 17.1912 22.2709 16.9437 22.2309 16.7721C22.2197 16.7251 22.1941 16.4589 22.6183 15.7992C24.2648 15.0725 25.3471 12.6638 25.3471 10.4587C25.3691 9.95588 25.2877 9.45388 25.108 8.98392C24.9283 8.51395 24.6542 8.08604 24.3026 7.72679C23.951 7.36753 23.5294 7.0846 23.0642 6.89557C22.5989 6.70654 22.0998 6.61544 21.5979 6.62795C21.0754 6.61729 20.5565 6.71831 20.0759 6.92429C19.5953 7.13027 19.1639 7.4365 18.8105 7.8226C18.3613 7.25105 17.7879 6.78989 17.1339 6.47429C16.48 6.15869 15.7628 5.99698 15.037 6.0015C13.8278 5.97049 12.6557 6.42116 11.7773 7.25483C10.8989 8.08849 10.3859 9.23718 10.3506 10.4493C10.3506 12.8173 11.7478 15.4973 13.7192 16.3618ZM21.5979 8.50731C21.8529 8.49777 22.1069 8.5423 22.3435 8.63798C22.58 8.73365 22.7938 8.87833 22.9707 9.06253C23.1477 9.24673 23.2838 9.46631 23.3703 9.7069C23.4568 9.9475 23.4916 10.2037 23.4725 10.4587C23.4725 12.3224 22.399 14.1454 21.5979 14.1454C20.7969 14.1454 19.7234 12.3224 19.7234 10.4587C19.7043 10.2037 19.7391 9.9475 19.8256 9.7069C19.9121 9.46631 20.0482 9.24673 20.2252 9.06253C20.4021 8.87833 20.6159 8.73365 20.8524 8.63798C21.089 8.5423 21.343 8.49777 21.5979 8.50731ZM15.037 7.88086C15.749 7.85003 16.4442 8.10279 16.971 8.58398C17.4978 9.06517 17.8134 9.73572 17.8488 10.4493C17.8488 12.3368 16.4848 14.7718 15.037 14.7718C13.5892 14.7718 12.2251 12.3368 12.2251 10.4493C12.2606 9.73572 12.5762 9.06517 13.103 8.58398C13.6298 8.10279 14.325 7.85003 15.037 7.88086Z" fill="#EAAB83"/>
</svg>
