<svg width="77" height="28" viewBox="0 0 77 28" fill="none" xmlns="http://www.w3.org/2000/svg">
<rect width="76.6658" height="27.75" rx="13.875" fill="#E4FDEA"/>
<path d="M34.598 7.87H36.138V9.116C36.138 11.566 34.948 13.792 32.414 14.604L31.504 13.134C33.688 12.434 34.598 10.754 34.598 9.116V7.87ZM34.976 7.87H36.502V9.116C36.502 10.712 37.398 12.28 39.512 12.924L38.602 14.38C36.124 13.596 34.976 11.524 34.976 9.116V7.87ZM33.492 15.584H42.34V20.246H40.464V17.068H33.492V15.584ZM40.464 7.282H42.34V15.01H40.464V7.282ZM52.7969 7.282H54.6729V14.758H52.7969V7.282ZM54.1269 10.348H56.3669V11.86H54.1269V10.348ZM50.4169 14.996C53.0769 14.996 54.7989 15.99 54.7989 17.628C54.7989 19.28 53.0769 20.26 50.4169 20.26C47.7429 20.26 46.0209 19.28 46.0209 17.628C46.0209 15.99 47.7429 14.996 50.4169 14.996ZM50.4169 16.48C48.7649 16.48 47.8549 16.844 47.8549 17.628C47.8549 18.398 48.7649 18.776 50.4169 18.776C52.0549 18.776 52.9649 18.398 52.9649 17.628C52.9649 16.844 52.0549 16.48 50.4169 16.48ZM44.8869 12.602H45.9649C48.8209 12.602 50.2349 12.532 51.7889 12.196L51.9709 13.68C50.3889 14.03 48.8909 14.086 45.9649 14.086H44.8869V12.602ZM44.8869 8.15H50.6829V9.634H46.7349V13.61H44.8869V8.15Z" fill="#7CC68F"/>
<path d="M20.6427 13.7655C20.6789 13.3529 20.3738 12.9891 19.9611 12.9529C19.5485 12.9167 19.1847 13.2218 19.1485 13.6345L20.6427 13.7655ZM19.3796 19.583L18.6325 19.5175C18.6296 19.5505 18.6289 19.5837 18.6304 19.6168L19.3796 19.583ZM22.3206 19.583L23.0698 19.6168C23.0713 19.5838 23.0706 19.5506 23.0677 19.5176L22.3206 19.583ZM22.5527 13.6346C22.5166 13.222 22.1528 12.9167 21.7402 12.9529C21.3276 12.989 21.0223 13.3528 21.0585 13.7654L22.5527 13.6346ZM18.7014 7.22704C18.8268 6.83227 18.6084 6.41058 18.2136 6.28519C17.8189 6.1598 17.3972 6.37818 17.2718 6.77296L18.7014 7.22704ZM17.3506 10.256L16.6029 10.1974C16.6014 10.2164 16.6006 10.2354 16.6006 10.2545L17.3506 10.256ZM18.3756 12.789L18.9135 12.2664L18.9135 12.2663L18.3756 12.789ZM20.8491 14.588C21.2634 14.5888 21.5998 14.2537 21.6006 13.8394C21.6014 13.4252 21.2663 13.0888 20.852 13.088L20.8491 14.588ZM20.1006 13.8384C20.1006 14.2526 20.4364 14.5884 20.8506 14.5884C21.2648 14.5884 21.6006 14.2526 21.6006 13.8384H20.1006ZM21.6006 7.65137C21.6006 7.23715 21.2648 6.90137 20.8506 6.90137C20.4364 6.90137 20.1006 7.23715 20.1006 7.65137H21.6006ZM20.8489 13.0876C20.4347 13.0885 20.0997 13.425 20.1006 13.8392C20.1015 14.2534 20.438 14.5885 20.8522 14.5876L20.8489 13.0876ZM22.0163 14.4193C22.4138 14.3029 22.6417 13.8863 22.5253 13.4888C22.4089 13.0913 21.9923 12.8634 21.5948 12.9798L22.0163 14.4193ZM21.5958 12.9799C21.1981 13.0958 20.9697 13.5121 21.0855 13.9098C21.2014 14.3075 21.6177 14.5359 22.0154 14.4201L21.5958 12.9799ZM23.3256 12.787L23.8627 13.3105L23.8635 13.3097L23.3256 12.787ZM24.3506 10.256L25.1006 10.2549C25.1006 10.2357 25.0998 10.2165 25.0983 10.1974L24.3506 10.256ZM24.4294 6.77296C24.304 6.37818 23.8823 6.1598 23.4875 6.28519C23.0928 6.41058 22.8744 6.83227 22.9998 7.22704L24.4294 6.77296ZM19.1485 13.6345L18.6325 19.5175L20.1267 19.6485L20.6427 13.7655L19.1485 13.6345ZM18.6304 19.6168C18.684 20.8038 19.6619 21.7386 20.8501 21.7386V20.2386C20.464 20.2386 20.1463 19.9348 20.1288 19.5491L18.6304 19.6168ZM20.8501 21.7386C22.0383 21.7386 23.0162 20.8038 23.0698 19.6168L21.5714 19.5491C21.5539 19.9348 21.2362 20.2386 20.8501 20.2386V21.7386ZM23.0677 19.5176L22.5527 13.6346L21.0585 13.7654L21.5735 19.6484L23.0677 19.5176ZM17.2718 6.77296C16.9185 7.88508 16.6941 9.03407 16.6029 10.1974L18.0983 10.3146C18.1805 9.26575 18.3829 8.22978 18.7014 7.22704L17.2718 6.77296ZM16.6006 10.2545C16.5983 11.3959 17.0422 12.4931 17.8377 13.3117L18.9135 12.2663C18.3908 11.7284 18.0991 11.0075 18.1006 10.2575L16.6006 10.2545ZM17.8377 13.3116C18.6284 14.1256 19.7143 14.5858 20.8491 14.588L20.852 13.088C20.1215 13.0866 19.4226 12.7903 18.9135 12.2664L17.8377 13.3116ZM21.6006 13.8384V7.65137H20.1006V13.8384H21.6006ZM20.8522 14.5876C21.2462 14.5867 21.6382 14.5301 22.0163 14.4193L21.5948 12.9798C21.3525 13.0507 21.1014 13.087 20.8489 13.0876L20.8522 14.5876ZM22.0154 14.4201C22.7166 14.2157 23.353 13.8335 23.8627 13.3105L22.7885 12.2635C22.4594 12.6012 22.0485 12.848 21.5958 12.9799L22.0154 14.4201ZM23.8635 13.3097C24.6584 12.4917 25.1023 11.3955 25.1006 10.2549L23.6006 10.2571C23.6017 11.0066 23.31 11.7268 22.7877 12.2643L23.8635 13.3097ZM25.0983 10.1974C25.0071 9.03407 24.7826 7.88508 24.4294 6.77296L22.9998 7.22704C23.3183 8.22978 23.5206 9.26575 23.6029 10.3146L25.0983 10.1974Z" fill="#7CC68F"/>
</svg>
