<svg width="77" height="28" viewBox="0 0 77 28" fill="none" xmlns="http://www.w3.org/2000/svg">
<rect width="76.6658" height="27.75" rx="13.875" fill="#FFE8EB"/>
<path d="M36.8246 7.45H38.4206V7.842C38.4206 10.166 36.4886 12.07 33.1566 12.532L32.4846 11.09C35.3966 10.726 36.8246 9.214 36.8246 7.842V7.45ZM37.1326 7.45H38.7286V7.842C38.7286 9.2 40.1566 10.726 43.0546 11.09L42.3826 12.532C39.0506 12.07 37.1326 10.152 37.1326 7.842V7.45ZM36.8246 14.352H38.6726V16.326H36.8246V14.352ZM31.9106 13.204H43.6286V14.674H31.9106V13.204ZM33.2126 15.92H42.2146V20.246H40.3526V17.376H33.2126V15.92ZM53.1335 7.282H54.9955V15.052H53.1335V7.282ZM54.4775 10.432H56.7175V11.958H54.4775V10.432ZM46.3435 15.626H54.9955V20.246H53.1335V17.11H46.3435V15.626ZM45.1675 8.094H47.0155V9.802H49.5495V8.094H51.3975V14.394H45.1675V8.094ZM47.0155 11.23V12.938H49.5495V11.23H47.0155Z" fill="#F17E8F"/>
<path fill-rule="evenodd" clip-rule="evenodd" d="M27.021 17.1088L27.0262 12.2374L23.4342 8.78128C22.3502 7.73957 20.5978 7.73957 19.5138 8.78128L15.9297 12.229V17.1063C15.9326 18.5814 17.1736 19.7751 18.7019 19.7728H24.2488C25.7761 19.7751 27.0166 18.583 27.021 17.1088Z" stroke="#F17E8F" stroke-width="1.5" stroke-linecap="round" stroke-linejoin="round"/>
<path d="M27.777 8.85645C27.777 8.44223 27.4413 8.10645 27.027 8.10645C26.6128 8.10645 26.277 8.44223 26.277 8.85645H27.777ZM27.027 12.2377H26.277C26.277 12.4417 26.3601 12.6368 26.507 12.7782L27.027 12.2377ZM27.9236 14.1413C28.2221 14.4285 28.6968 14.4194 28.9841 14.1209C29.2713 13.8224 29.2621 13.3476 28.9637 13.0604L27.9236 14.1413ZM16.4497 12.7698C16.7482 12.4825 16.7573 12.0078 16.4701 11.7093C16.1829 11.4108 15.7081 11.4017 15.4096 11.6889L16.4497 12.7698ZM13.9844 13.0604C13.6859 13.3476 13.6768 13.8224 13.964 14.1209C14.2512 14.4194 14.726 14.4285 15.0244 14.1413L13.9844 13.0604ZM22.4664 19.7731C22.4664 20.1873 22.8022 20.5231 23.2164 20.5231C23.6306 20.5231 23.9664 20.1873 23.9664 19.7731H22.4664ZM18.9816 19.7731C18.9816 20.1873 19.3174 20.5231 19.7316 20.5231C20.1458 20.5231 20.4816 20.1873 20.4816 19.7731H18.9816ZM26.277 8.85645V12.2377H27.777V8.85645H26.277ZM26.507 12.7782L27.9236 14.1413L28.9637 13.0604L27.5471 11.6973L26.507 12.7782ZM15.4096 11.6889L13.9844 13.0604L15.0244 14.1413L16.4497 12.7698L15.4096 11.6889ZM23.9664 19.7731V18.2763H22.4664V19.7731H23.9664ZM23.9664 18.2763C23.9664 16.9085 22.8253 15.8445 21.474 15.8445V17.3445C22.0473 17.3445 22.4664 17.7865 22.4664 18.2763H23.9664ZM21.474 15.8445C20.1227 15.8445 18.9816 16.9085 18.9816 18.2763H20.4816C20.4816 17.7865 20.9007 17.3445 21.474 17.3445V15.8445ZM18.9816 18.2763V19.7731H20.4816V18.2763H18.9816Z" fill="#F17E8F"/>
</svg>
