<svg width="77" height="28" viewBox="0 0 77 28" fill="none" xmlns="http://www.w3.org/2000/svg">
<rect width="76.6658" height="27.75" rx="13.875" fill="#E4F1FF"/>
<path d="M32.134 8.22H37.678V9.718H32.134V8.22ZM33.73 11.244H35.578V14.492H33.73V11.244ZM36.95 8.22H38.784V9.032C38.784 9.942 38.784 11.23 38.476 12.84L36.67 12.644C36.95 11.048 36.95 9.928 36.95 9.032V8.22ZM40.044 7.282H41.92V16.984H40.044V7.282ZM41.178 11.23H43.46V12.756H41.178V11.23ZM33.268 18.538H42.326V20.022H33.268V18.538ZM33.268 16.116H35.13V19H33.268V16.116ZM31.546 15.248L31.378 13.778C33.618 13.778 36.74 13.736 39.344 13.372L39.456 14.688C36.782 15.192 33.772 15.248 31.546 15.248ZM45.0129 7.982H50.5569V9.466H45.0129V7.982ZM46.6089 10.88H48.4569V14.086H46.6089V10.88ZM49.8289 7.982H51.6629V8.822C51.6629 9.69 51.6629 10.824 51.3689 12.238L49.5629 12.098C49.8289 10.712 49.8289 9.69 49.8289 8.822V7.982ZM52.9229 7.282H54.7989V15.178H52.9229V7.282ZM54.0569 10.46H56.3529V12H54.0569V10.46ZM44.4389 14.66L44.2569 13.176C46.5809 13.176 49.6329 13.148 52.2229 12.826L52.3349 14.142C49.6749 14.604 46.7349 14.66 44.4389 14.66ZM50.4169 15.332C53.1749 15.332 54.9109 16.256 54.9109 17.768C54.9109 19.322 53.1749 20.232 50.4169 20.232C47.6589 20.232 45.9369 19.322 45.9369 17.768C45.9369 16.256 47.6589 15.332 50.4169 15.332ZM50.4169 16.76C48.7509 16.76 47.8269 17.096 47.8269 17.768C47.8269 18.468 48.7509 18.79 50.4169 18.79C52.0969 18.79 52.9929 18.468 52.9929 17.768C52.9929 17.096 52.0969 16.76 50.4169 16.76Z" fill="#6ECBEC"/>
<g clip-path="url(#clip0_33_2721)">
<path d="M25.8506 11C25.1875 11 24.5517 10.7366 24.0828 10.2678C23.614 9.79893 23.3506 9.16304 23.3506 8.5C23.3506 7.83696 23.614 7.20107 24.0828 6.73223C24.5517 6.26339 25.1875 6 25.8506 6C26.5136 6 27.1495 6.26339 27.6184 6.73223C28.0872 7.20107 28.3506 7.83696 28.3506 8.5C28.3506 9.16304 28.0872 9.79893 27.6184 10.2678C27.1495 10.7366 26.5136 11 25.8506 11ZM28.3506 21H19.6006V19.535L22.3106 13.9375C22.4636 13.6242 22.7018 13.3605 22.998 13.1766C23.2941 12.9926 23.6361 12.8959 23.9847 12.8976C24.3334 12.8993 24.6744 12.9993 24.9688 13.1862C25.2631 13.373 25.4988 13.639 25.6487 13.9537L28.3506 19.535V21ZM21.8743 19.125H26.0693L23.9537 14.7563L21.8743 19.125ZM21.6243 10.3869C21.4473 10.0146 21.1684 9.70021 20.82 9.48005C20.4715 9.2599 20.0678 9.14305 19.6556 9.14305C19.2434 9.14305 18.8397 9.2599 18.4912 9.48005C18.1427 9.70021 17.8638 10.0146 17.6868 10.3869L13.3506 19.8575V21H18.3506V19.125H15.7318L19.3912 11.17C19.4131 11.1177 19.4499 11.0729 19.4971 11.0415C19.5443 11.01 19.5998 10.9932 19.6565 10.9932C19.7133 10.9932 19.7687 11.01 19.8159 11.0415C19.8631 11.0729 19.9 11.1177 19.9218 11.17L21.065 13.655L21.1668 13.4338C21.4282 12.8629 21.8581 12.3857 22.3987 12.0663L21.6243 10.3869Z" fill="#6ECBEC"/>
</g>
<defs>
<clipPath id="clip0_33_2721">
<rect width="15" height="15" fill="white" transform="translate(13.3506 6)"/>
</clipPath>
</defs>
</svg>
