<svg width="40" height="17" viewBox="0 0 40 17" fill="none" xmlns="http://www.w3.org/2000/svg">
<rect x="0.5" y="0.5" width="39" height="16" rx="3.5" fill="#FF2445"/>
<path d="M14.9089 9.868C17.3089 9.868 18.8449 10.66 18.8449 11.98C18.8449 13.276 17.3089 14.068 14.9089 14.068C12.5089 14.068 10.9729 13.276 10.9729 11.98C10.9729 10.66 12.5089 9.868 14.9089 9.868ZM14.9089 11.068C13.4089 11.068 12.5569 11.38 12.5569 11.98C12.5569 12.568 13.4089 12.868 14.9089 12.868C16.4089 12.868 17.2609 12.568 17.2609 11.98C17.2609 11.38 16.4089 11.068 14.9089 11.068ZM11.0929 3.448H18.1249V4.708H11.0929V3.448ZM9.96494 7.912H19.9729V9.184H9.96494V7.912ZM13.6729 5.98H15.2569V8.236H13.6729V5.98ZM17.2009 3.448H18.7849V4.36C18.7849 5.236 18.7849 6.184 18.4849 7.336L16.9009 7.168C17.2009 6.028 17.2009 5.224 17.2009 4.36V3.448ZM23.656 4.708H24.928V5.956C24.928 8.524 23.884 11.032 21.796 11.98L20.896 10.72C22.756 9.892 23.656 7.84 23.656 5.956V4.708ZM24.016 4.708H25.276V5.956C25.276 7.756 26.164 9.676 28.024 10.444L27.16 11.704C25.048 10.792 24.016 8.428 24.016 5.956V4.708ZM21.34 4.024H27.568V5.332H21.34V4.024ZM28.6 2.956H30.208V14.068H28.6V2.956Z" fill="white"/>
<rect x="0.5" y="0.5" width="39" height="16" rx="3.5" stroke="#FF2445"/>
</svg>
