<svg width="41" height="17" viewBox="0 0 41 17" fill="none" xmlns="http://www.w3.org/2000/svg">
<rect x="1.44116" y="0.5" width="39" height="16" rx="3.5" fill="#E4F1FF"/>
<path d="M13.3781 4.708H14.6381V5.956C14.6381 8.464 13.5821 11.02 11.5421 11.98L10.6421 10.72C12.4781 9.856 13.3781 7.78 13.3781 5.956V4.708ZM13.7141 4.708H14.9741V5.956C14.9741 7.636 15.8381 9.604 17.6621 10.444L16.7861 11.704C14.7461 10.756 13.7141 8.32 13.7141 5.956V4.708ZM11.0741 4.024H17.1701V5.332H11.0741V4.024ZM17.9861 2.956H19.5941V14.068H17.9861V2.956ZM19.2341 7.192H21.2021V8.512H19.2341V7.192ZM24.1892 9.976H25.8212V14.068H24.1892V9.976ZM28.0292 9.976H29.6612V14.068H28.0292V9.976ZM21.9212 9.136H31.9892V10.42H21.9212V9.136ZM26.9252 3.328C29.3012 3.328 30.9452 4.3 30.9452 5.824C30.9452 7.324 29.3012 8.296 26.9252 8.296C24.5612 8.296 22.9172 7.324 22.9172 5.824C22.9172 4.3 24.5612 3.328 26.9252 3.328ZM26.9252 4.6C25.4732 4.6 24.5492 5.032 24.5492 5.824C24.5492 6.604 25.4732 7.036 26.9252 7.036C28.3892 7.036 29.3012 6.604 29.3012 5.824C29.3012 5.032 28.3892 4.6 26.9252 4.6Z" fill="#6ECBEC"/>
<rect x="1.44116" y="0.5" width="39" height="16" rx="3.5" stroke="#7BC9E4"/>
</svg>
