<svg width="40" height="17" viewBox="0 0 40 17" fill="none" xmlns="http://www.w3.org/2000/svg">
<rect x="0.5" y="0.5" width="39" height="16" rx="3.5" fill="#E4FDEA"/>
<path d="M17.5729 2.956H19.1809V8.644H17.5729V2.956ZM11.7649 9.088H19.1809V12.076H13.3489V13.24H11.7889V10.96H17.5969V10.3H11.7649V9.088ZM11.7889 12.772H19.4569V13.996H11.7889V12.772ZM12.6409 4.012H13.9369V4.444C13.9369 6.412 12.8929 8.164 10.7209 8.776L9.98894 7.528C11.8369 7.012 12.6409 5.716 12.6409 4.444V4.012ZM12.9889 4.012H14.2729V4.444C14.2729 5.62 15.0649 6.832 16.8769 7.324L16.1449 8.548C14.0089 7.972 12.9889 6.304 12.9889 4.444V4.012ZM10.4089 3.46H16.4569V4.72H10.4089V3.46ZM20.98 8.44H31.036V9.712H20.98V8.44ZM25.336 9.244H26.944V11.584H25.336V9.244ZM22.216 3.424H29.764V7.552H22.216V3.424ZM28.192 4.672H23.776V6.304H28.192V4.672ZM22.144 12.604H29.932V13.876H22.144V12.604ZM22.144 10.648H23.728V13.024H22.144V10.648Z" fill="#7CC68F"/>
<rect x="0.5" y="0.5" width="39" height="16" rx="3.5" stroke="#9CDFAD"/>
</svg>
