<svg width="42" height="19" viewBox="0 0 42 19" fill="none" xmlns="http://www.w3.org/2000/svg">
<rect x="0.941162" y="1" width="40" height="17" rx="4" fill="#FFF4E4"/>
<path d="M15.1061 11.072H16.6901V15.08H15.1061V11.072ZM10.8941 10.604H20.9381V11.9H10.8941V10.604ZM15.0941 5.948H16.4981V6.212C16.4981 8.072 14.8901 9.692 11.9501 10.04L11.3981 8.792C13.9061 8.504 15.0941 7.244 15.0941 6.212V5.948ZM15.2981 5.948H16.7021V6.212C16.7021 7.22 17.9021 8.504 20.3981 8.792L19.8341 10.04C16.9061 9.704 15.2981 8.024 15.2981 6.212V5.948ZM11.7941 5.228H20.0261V6.488H11.7941V5.228ZM15.1061 3.98H16.6901V5.66H15.1061V3.98ZM24.4172 6.128H25.7132V6.56C25.7132 8.588 24.7292 10.4 22.6172 11.06L21.8492 9.812C23.6492 9.248 24.4172 7.904 24.4172 6.56V6.128ZM24.7052 6.128H26.0132V6.56C26.0132 7.808 26.7932 9.092 28.5932 9.632L27.8252 10.88C25.7252 10.256 24.7052 8.504 24.7052 6.56V6.128ZM22.2332 5.264H28.1972V6.512H22.2332V5.264ZM24.4172 4.04H26.0132V5.732H24.4172V4.04ZM27.8492 7.184H30.4292V8.492H27.8492V7.184ZM29.6252 3.968H31.2212V12.188H29.6252V3.968ZM23.8892 13.604H31.4732V14.876H23.8892V13.604ZM23.8892 11.504H25.4852V14.444H23.8892V11.504Z" fill="#EAAB83"/>
<rect x="0.941162" y="1" width="40" height="17" rx="4" stroke="#EAAB83"/>
</svg>
