<svg width="41" height="17" viewBox="0 0 41 17" fill="none" xmlns="http://www.w3.org/2000/svg">
<rect x="1.44116" y="0.5" width="39" height="16" rx="3.5" fill="#FFE8EB"/>
<path d="M11.3621 4.108H20.4101V5.368H11.3621V4.108ZM10.8941 10.144H20.9501V11.428H10.8941V10.144ZM15.1061 11.272H16.7021V14.08H15.1061V11.272ZM15.9101 5.8C18.2981 5.8 19.7141 6.472 19.7141 7.708C19.7141 8.932 18.2981 9.616 15.9101 9.616C13.5101 9.616 12.0941 8.932 12.0941 7.708C12.0941 6.472 13.5101 5.8 15.9101 5.8ZM15.9101 6.988C14.4581 6.988 13.7501 7.204 13.7501 7.708C13.7501 8.212 14.4581 8.428 15.9101 8.428C17.3621 8.428 18.0701 8.212 18.0701 7.708C18.0701 7.204 17.3621 6.988 15.9101 6.988ZM15.1061 2.944H16.7021V4.948H15.1061V2.944ZM29.5772 2.956H31.1852V14.068H29.5772V2.956ZM26.3012 4.108H27.8852C27.8852 7.504 26.7332 10.288 22.7852 12.196L21.9572 10.924C25.1492 9.388 26.3012 7.372 26.3012 4.396V4.108ZM22.5452 4.108H27.0572V5.368H22.5452V4.108Z" fill="#F17E8F"/>
<rect x="1.44116" y="0.5" width="39" height="16" rx="3.5" stroke="#E8A0AB"/>
</svg>
