<svg width="24" height="24" viewBox="0 0 24 24" fill="none" xmlns="http://www.w3.org/2000/svg">
<path fill-rule="evenodd" clip-rule="evenodd" d="M1 11.9997C1.00038 6.75217 4.70751 2.23568 9.85427 1.21229C15.001 0.188903 20.154 2.94363 22.1618 7.7918C24.1697 12.64 22.4732 18.2313 18.1099 21.1464C13.7466 24.0615 7.93164 23.4885 4.22126 19.7778C2.15852 17.7148 0.99979 14.917 1 11.9997Z" stroke="white" stroke-width="2" stroke-linecap="round" stroke-linejoin="round"/>
<path d="M7.87457 11.0013C7.32229 11.0013 6.87457 11.449 6.87457 12.0013C6.87457 12.5536 7.32229 13.0013 7.87457 13.0013V11.0013ZM11.9994 13.0013C12.5516 13.0013 12.9994 12.5536 12.9994 12.0013C12.9994 11.449 12.5516 11.0013 11.9994 11.0013V13.0013ZM11.9994 11.0015C11.4471 11.0015 10.9994 11.4492 10.9994 12.0015C10.9994 12.5538 11.4471 13.0015 11.9994 13.0015V11.0015ZM16.1242 13.0015C16.6765 13.0015 17.1242 12.5538 17.1242 12.0015C17.1242 11.4492 16.6765 11.0015 16.1242 11.0015V13.0015ZM12.9994 12C12.9994 11.4477 12.5516 11 11.9994 11C11.4471 11 10.9994 11.4477 10.9994 12H12.9994ZM10.9994 16.1248C10.9994 16.677 11.4471 17.1248 11.9994 17.1248C12.5516 17.1248 12.9994 16.677 12.9994 16.1248H10.9994ZM10.9994 12.0007C10.9994 12.553 11.4471 13.0007 11.9994 13.0007C12.5516 13.0007 12.9994 12.553 12.9994 12.0007H10.9994ZM12.9994 7.87598C12.9994 7.32369 12.5516 6.87598 11.9994 6.87598C11.4471 6.87598 10.9994 7.32369 10.9994 7.87598H12.9994ZM7.87457 13.0013H11.9994V11.0013H7.87457V13.0013ZM11.9994 13.0015H16.1242V11.0015H11.9994V13.0015ZM10.9994 12V16.1248H12.9994V12H10.9994ZM12.9994 12.0007V7.87598H10.9994V12.0007H12.9994Z" fill="white"/>
</svg>
