<svg width="434" height="48" viewBox="0 0 434 48" fill="none" xmlns="http://www.w3.org/2000/svg">
<path d="M9.84883 5.15H14.9488V12.95C14.9488 23.45 11.9988 33.65 4.54883 38.15L0.448828 33.25C7.34883 29.1 9.84883 20.8 9.84883 12.95V5.15ZM11.1488 5.15H16.2988V12.45C16.2988 20.45 18.3988 28 24.8488 31.55L20.9988 36.8C13.4988 32.6 11.1488 23.05 11.1488 12.45V5.15ZM34.7488 1.15H41.0988V47.45H34.7488V1.15ZM29.1988 19.15H36.8488V24.5H29.1988V19.15ZM24.7488 1.85H30.9988V45.35H24.7488V1.85ZM47.3449 36.95H89.2449V42.35H47.3449V36.95ZM64.8949 28.2H71.5449V39.15H64.8949V28.2ZM52.0449 4.15H84.5449V19.55H58.7449V27.35H52.1449V14.35H77.9449V9.4H52.0449V4.15ZM52.1449 24.7H85.5949V30.05H52.1449V24.7ZM93.291 23.65H135.241V28.9H93.291V23.65ZM111.241 27.1H117.991V36.85H111.241V27.1ZM98.191 41.3H130.641V46.65H98.191V41.3ZM98.191 32.8H104.891V42.65H98.191V32.8ZM114.241 2C124.191 2 130.891 5.75 130.891 11.6C130.891 17.5 124.191 21.2 114.241 21.2C104.241 21.2 97.591 17.5 97.591 11.6C97.591 5.75 104.241 2 114.241 2ZM114.241 7.25C108.391 7.25 104.741 8.75 104.741 11.6C104.741 14.45 108.391 15.9 114.241 15.9C120.091 15.9 123.741 14.45 123.741 11.6C123.741 8.75 120.091 7.25 114.241 7.25ZM167.733 13.35H177.133V18.65H167.733V13.35ZM167.483 24.9H176.933V30.2H167.483V24.9ZM183.433 1.15H189.783V47.45H183.433V1.15ZM173.883 2.15H180.083V45.4H173.883V2.15ZM163.433 6.6H169.833C169.833 19.75 165.883 30.25 152.983 37.85L149.233 33.2C159.683 26.85 163.433 19.15 163.433 7.95V6.6ZM151.883 6.6H165.683V11.9H151.883V6.6ZM197.429 4.55H224.629V9.3H197.429V4.55ZM211.029 10.4C217.929 10.4 222.529 13.15 222.529 17.35C222.529 21.6 217.929 24.3 211.029 24.3C204.129 24.3 199.529 21.6 199.529 17.35C199.529 13.15 204.129 10.4 211.029 10.4ZM211.029 14.8C207.929 14.8 205.879 15.65 205.879 17.35C205.879 19 207.929 19.9 211.029 19.9C214.179 19.9 216.179 19 216.179 17.35C216.179 15.65 214.179 14.8 211.029 14.8ZM207.679 0.849997H214.379V6.95H207.679V0.849997ZM207.679 21.85H214.379V28.3H207.679V21.85ZM227.779 1.2H234.479V32.55H227.779V1.2ZM202.479 34.35H234.479V47.45H227.779V39.45H202.479V34.35ZM196.929 31.65L196.129 26.6C204.479 26.6 215.579 26.55 225.029 25.35L225.529 29.8C215.729 31.5 205.079 31.65 196.929 31.65ZM270.721 16.7H278.371V22.1H270.721V16.7ZM260.821 5.15H265.921V12.95C265.921 23.45 263.021 33.7 255.621 38.25L251.621 33.25C258.421 29.05 260.821 20.8 260.821 12.95V5.15ZM262.271 5.15H267.271V12.65C267.271 20.2 269.221 27.9 275.521 32L271.921 37.2C264.571 32.65 262.271 22.65 262.271 12.65V5.15ZM285.921 1.15H292.271V47.45H285.921V1.15ZM276.521 1.85H282.721V45.35H276.521V1.85ZM298.467 27.05H340.417V32.4H298.467V27.05ZM315.967 30.5H322.567V47.5H315.967V30.5ZM319.317 2.7C329.217 2.7 336.067 6.8 336.067 13.15C336.067 19.45 329.217 23.5 319.317 23.5C309.467 23.5 302.617 19.45 302.617 13.15C302.617 6.8 309.467 2.7 319.317 2.7ZM319.317 8C313.267 8 309.417 9.8 309.417 13.15C309.417 16.45 313.267 18.25 319.317 18.25C325.417 18.25 329.217 16.45 329.217 13.15C329.217 9.8 325.417 8 319.317 8ZM376.363 1.15H383.063V47.45H376.363V1.15ZM362.713 5.95H369.313C369.313 20.1 364.513 31.7 348.063 39.65L344.613 34.35C357.913 27.95 362.713 19.55 362.713 7.15V5.95ZM347.063 5.95H365.863V11.2H347.063V5.95ZM412.8 14.45H423.55L433.7 25.5L423.55 36.55H412.8L423 25.5L412.8 14.45Z" fill="url(#paint0_linear_48_2473)" style="mix-blend-mode:darken"/>
<defs>
<linearGradient id="paint0_linear_48_2473" x1="-0.999999" y1="8.25" x2="400.21" y2="228.181" gradientUnits="userSpaceOnUse">
<stop stop-color="#E1306C"/>
<stop offset="0.606989" stop-color="#FF699A"/>
<stop offset="0.942708" stop-color="#FCAF45"/>
</linearGradient>
</defs>
</svg>
