<svg width="16" height="17" viewBox="0 0 16 17" fill="none" xmlns="http://www.w3.org/2000/svg">
<path fill-rule="evenodd" clip-rule="evenodd" d="M13.2001 1.12758L14.7661 2.37458C14.9173 2.51691 15.0026 2.71571 15.0014 2.92339C15.0003 3.13106 14.9129 3.32892 14.7601 3.46958L13.5701 4.89358L9.5211 9.72258C9.45027 9.80371 9.35588 9.8607 9.2511 9.88558L7.1511 10.3616C6.87559 10.3754 6.63573 10.1751 6.6001 9.90158V7.74358C6.60725 7.63955 6.64916 7.54093 6.7191 7.46358L10.6931 2.97058L12.0571 1.34158C12.3269 0.987862 12.8206 0.895446 13.2001 1.12758Z" stroke="white" stroke-width="1.5" stroke-linecap="round" stroke-linejoin="round"/>
<path d="M7.53301 3.61865C7.94722 3.61865 8.28301 3.28287 8.28301 2.86865C8.28301 2.45444 7.94722 2.11865 7.53301 2.11865V3.61865ZM4.73301 2.86865L4.73301 2.11865L4.73121 2.11865L4.73301 2.86865ZM1.00001 6.61865L1.75001 6.61865L1.75001 6.61705L1.00001 6.61865ZM1.00001 12.2437L1.75001 12.2453V12.2437H1.00001ZM4.73301 15.9937L4.73121 16.7437H4.73301V15.9937ZM10.333 15.9937L10.333 16.7437L10.3348 16.7437L10.333 15.9937ZM14.066 12.2437L13.316 12.2437L13.316 12.2453L14.066 12.2437ZM14.816 8.49365C14.816 8.07944 14.4802 7.74365 14.066 7.74365C13.6518 7.74365 13.316 8.07944 13.316 8.49365H14.816ZM11.3863 2.68446C11.2282 2.30159 10.7897 2.11934 10.4068 2.2774C10.0239 2.43546 9.8417 2.87397 9.99976 3.25684L11.3863 2.68446ZM13.7319 5.62197C14.1363 5.53257 14.3917 5.13222 14.3023 4.72777C14.2129 4.32332 13.8126 4.06792 13.4081 4.15733L13.7319 5.62197ZM3.80001 12.4317C3.3858 12.4317 3.05001 12.7674 3.05001 13.1817C3.05001 13.5959 3.3858 13.9317 3.80001 13.9317V12.4317ZM11.267 13.9317C11.6812 13.9317 12.017 13.5959 12.017 13.1817C12.017 12.7674 11.6812 12.4317 11.267 12.4317V13.9317ZM7.53301 2.11865H4.73301V3.61865H7.53301V2.11865ZM4.73121 2.11865C2.25081 2.12461 0.2447 4.13986 0.25001 6.62026L1.75001 6.61705C1.74647 4.96492 3.08269 3.62262 4.73481 3.61865L4.73121 2.11865ZM0.250009 6.61865V12.2437H1.75001V6.61865H0.250009ZM0.25001 12.242C0.2447 14.7224 2.25081 16.7377 4.73121 16.7437L4.73481 15.2437C3.08269 15.2397 1.74647 13.8974 1.75001 12.2453L0.25001 12.242ZM4.73301 16.7437H10.333V15.2437H4.73301V16.7437ZM10.3348 16.7437C12.8152 16.7377 14.8213 14.7224 14.816 12.242L13.316 12.2453C13.3195 13.8974 11.9833 15.2397 10.3312 15.2437L10.3348 16.7437ZM14.816 12.2437V8.49365H13.316V12.2437H14.816ZM9.99976 3.25684C10.1947 3.72897 10.5923 4.39815 11.1866 4.91521C11.7944 5.44412 12.6679 5.85718 13.7319 5.62197L13.4081 4.15733C12.9431 4.26012 12.5391 4.10369 12.1712 3.7836C11.7897 3.45165 11.5134 2.99233 11.3863 2.68446L9.99976 3.25684ZM3.80001 13.9317H11.267V12.4317H3.80001V13.9317Z" fill="white"/>
</svg>
