<svg width="24" height="22" viewBox="0 0 24 22" fill="none" xmlns="http://www.w3.org/2000/svg">
<path fill-rule="evenodd" clip-rule="evenodd" d="M1.5 9.99981C1.50051 5.70617 4.53394 2.01081 8.74517 1.17363C12.9564 0.336448 17.1726 2.59062 18.8153 6.55759C20.458 10.5246 19.0697 15.0995 15.4994 17.4846C11.9292 19.8697 7.17131 19.4006 4.1355 16.3643C2.44774 14.6763 1.49971 12.3869 1.5 9.99981Z" fill="#E1306C" stroke="#E1306C" stroke-width="2" stroke-linecap="round" stroke-linejoin="round"/>
<path fill-rule="evenodd" clip-rule="evenodd" d="M10.5 14.4995L13.152 11.864C13.855 11.1669 14.2505 10.2179 14.2505 9.2278C14.2505 8.23772 13.855 7.28866 13.152 6.59155C11.684 5.13485 9.31593 5.13485 7.84798 6.59155C7.14493 7.28866 6.74945 8.23772 6.74945 9.2278C6.74945 10.2179 7.14493 11.1669 7.84798 11.864L10.5 14.4995Z" stroke="white" stroke-width="2" stroke-linecap="round" stroke-linejoin="round"/>
<path d="M17.2081 16L22.5001 20.5" stroke="#E1306C" stroke-width="2" stroke-linecap="round" stroke-linejoin="round"/>
</svg>
