<svg width="36" height="26" viewBox="0 0 36 26" fill="none" xmlns="http://www.w3.org/2000/svg">
<path d="M16.0783 4.39335C17.0782 3.44114 17.1167 1.8587 16.1645 0.85887C15.2123 -0.140956 13.6299 -0.179552 12.63 0.772663L16.0783 4.39335ZM1.69255 11.1893C0.692723 12.1415 0.654127 13.724 1.60634 14.7238C2.55856 15.7236 4.141 15.7622 5.14083 14.81L1.69255 11.1893ZM5.14083 11.1893C4.141 10.2371 2.55856 10.2757 1.60634 11.2755C0.654127 12.2754 0.692723 13.8578 1.69255 14.81L5.14083 11.1893ZM12.63 25.2267C13.6299 26.1789 15.2123 26.1403 16.1645 25.1405C17.1167 24.1407 17.0782 22.5582 16.0783 21.606L12.63 25.2267ZM3.41669 10.4997C2.03598 10.4997 0.916687 11.619 0.916687 12.9997C0.916687 14.3804 2.03598 15.4997 3.41669 15.4997V10.4997ZM32.5834 15.4997C33.9641 15.4997 35.0834 14.3804 35.0834 12.9997C35.0834 11.619 33.9641 10.4997 32.5834 10.4997V15.4997ZM12.63 0.772663L1.69255 11.1893L5.14083 14.81L16.0783 4.39335L12.63 0.772663ZM1.69255 14.81L12.63 25.2267L16.0783 21.606L5.14083 11.1893L1.69255 14.81ZM3.41669 15.4997H32.5834V10.4997H3.41669V15.4997Z" fill="#E93F78"/>
</svg>
