<svg width="17" height="23" viewBox="0 0 17 23" fill="none" xmlns="http://www.w3.org/2000/svg">
<path fill-rule="evenodd" clip-rule="evenodd" d="M12.875 4.20878L12.7204 3.90107C11.9211 2.30208 10.2869 1.29199 8.49927 1.29199C6.71163 1.29199 5.07744 2.30208 4.27812 3.90107L4.125 4.20878H12.875Z" stroke="black" stroke-width="2" stroke-linecap="round" stroke-linejoin="round"/>
<path d="M6.77598 11.2792C6.38546 10.8886 5.75229 10.8886 5.36177 11.2792C4.97125 11.6697 4.97125 12.3029 5.36177 12.6934L6.77598 11.2792ZM7.79281 15.1244C8.18334 15.5149 8.8165 15.5149 9.20703 15.1244C9.59755 14.7339 9.59755 14.1007 9.20703 13.7102L7.79281 15.1244ZM5.36177 16.1413C4.97125 16.5318 4.97125 17.1649 5.36177 17.5555C5.75229 17.946 6.38546 17.946 6.77598 17.5555L5.36177 16.1413ZM9.20703 15.1244C9.59755 14.7339 9.59755 14.1007 9.20703 13.7102C8.8165 13.3197 8.18334 13.3197 7.79281 13.7102L9.20703 15.1244ZM11.6381 12.6934C12.0286 12.3029 12.0286 11.6697 11.6381 11.2792C11.2475 10.8886 10.6144 10.8886 10.2239 11.2792L11.6381 12.6934ZM7.79281 13.7102C7.40229 14.1007 7.40229 14.7339 7.79281 15.1244C8.18334 15.5149 8.8165 15.5149 9.20703 15.1244L7.79281 13.7102ZM10.2239 17.5555C10.6144 17.946 11.2475 17.946 11.6381 17.5555C12.0286 17.1649 12.0286 16.5318 11.6381 16.1413L10.2239 17.5555ZM9.20703 13.7102C8.8165 13.3197 8.18334 13.3197 7.79281 13.7102C7.40229 14.1007 7.40229 14.7339 7.79281 15.1244L9.20703 13.7102ZM15.7916 5.20898C16.3439 5.20898 16.7916 4.76127 16.7916 4.20898C16.7916 3.6567 16.3439 3.20898 15.7916 3.20898V5.20898ZM12.8749 3.20898C12.3226 3.20898 11.8749 3.6567 11.8749 4.20898C11.8749 4.76127 12.3226 5.20898 12.8749 5.20898V3.20898ZM1.20825 3.20898C0.655967 3.20898 0.208252 3.6567 0.208252 4.20898C0.208252 4.76127 0.655967 5.20898 1.20825 5.20898V3.20898ZM4.12492 5.20898C4.6772 5.20898 5.12492 4.76127 5.12492 4.20898C5.12492 3.6567 4.6772 3.20898 4.12492 3.20898V5.20898ZM2.27609 20.6411L1.56899 21.3483H1.56899L2.27609 20.6411ZM1.20825 18.0632H2.20825H1.20825ZM5.36177 12.6934L7.79281 15.1244L9.20703 13.7102L6.77598 11.2792L5.36177 12.6934ZM6.77598 17.5555L9.20703 15.1244L7.79281 13.7102L5.36177 16.1413L6.77598 17.5555ZM10.2239 11.2792L7.79281 13.7102L9.20703 15.1244L11.6381 12.6934L10.2239 11.2792ZM11.6381 16.1413L9.20703 13.7102L7.79281 15.1244L10.2239 17.5555L11.6381 16.1413ZM15.7916 3.20898H12.8749V5.20898H15.7916V3.20898ZM1.20825 5.20898H4.12492V3.20898H1.20825V5.20898ZM2.42304 8.12565H14.5768V6.12565H2.42304V8.12565ZM14.5768 8.12565C14.6954 8.12565 14.7916 8.22182 14.7916 8.34044H16.7916C16.7916 7.11725 15.8 6.12565 14.5768 6.12565V8.12565ZM14.7916 8.34044V18.0632H16.7916V8.34044H14.7916ZM14.7916 18.0632C14.7916 19.5244 13.607 20.709 12.1458 20.709V22.709C14.7116 22.709 16.7916 20.629 16.7916 18.0632H14.7916ZM12.1458 20.709H4.85408V22.709H12.1458V20.709ZM4.85408 20.709C4.15237 20.709 3.47939 20.4302 2.9832 19.934L1.56899 21.3483C2.44025 22.2195 3.62193 22.709 4.85408 22.709V20.709ZM2.9832 19.934C2.48701 19.4378 2.20825 18.7649 2.20825 18.0632H0.208252C0.208252 19.2953 0.697722 20.477 1.56899 21.3483L2.9832 19.934ZM2.20825 18.0632V8.34044H0.208252V18.0632H2.20825ZM2.20825 8.34044C2.20825 8.22182 2.30442 8.12565 2.42304 8.12565V6.12565C1.19985 6.12565 0.208252 7.11725 0.208252 8.34044H2.20825Z" fill="black"/>
</svg>
 