<svg width="34" height="34" viewBox="0 0 34 34" fill="none" xmlns="http://www.w3.org/2000/svg">
<path fill-rule="evenodd" clip-rule="evenodd" d="M23.25 9.70866C23.25 10.284 23.7164 10.7503 24.2917 10.7503C24.867 10.7503 25.3333 10.284 25.3333 9.70866C25.3333 9.13336 24.867 8.66699 24.2917 8.66699C23.7164 8.66699 23.25 9.13336 23.25 9.70866Z" stroke="white" stroke-width="3" stroke-linecap="round" stroke-linejoin="round"/>
<path d="M30.0834 14.917C30.0834 15.7454 30.755 16.417 31.5834 16.417C32.4119 16.417 33.0834 15.7454 33.0834 14.917H30.0834ZM2.41676 23.2503L3.91676 23.2523V23.2503H2.41676ZM2.86756 29.1278C3.36368 29.7912 4.30369 29.9269 4.96713 29.4308C5.63058 28.9347 5.76623 27.9946 5.27012 27.3312L2.86756 29.1278ZM33.0834 14.917C33.0834 14.0886 32.4119 13.417 31.5834 13.417C30.755 13.417 30.0834 14.0886 30.0834 14.917H33.0834ZM10.7501 31.5837V30.0837H10.7491L10.7501 31.5837ZM5.27233 27.3341C4.77784 26.6695 3.83817 26.5315 3.1735 27.026C2.50884 27.5205 2.37088 28.4602 2.86537 29.1248L5.27233 27.3341ZM32.5909 16.0283C33.2047 15.4719 33.2511 14.5233 32.6947 13.9095C32.1383 13.2958 31.1897 13.2493 30.5759 13.8057L32.5909 16.0283ZM21.7918 23.7941L20.7842 22.6827L20.7741 22.6921L21.7918 23.7941ZM20.2072 24.3398L20.084 25.8348H20.084L20.2072 24.3398ZM18.7334 23.542L19.9178 22.6215L19.9171 22.6206L18.7334 23.542ZM14.548 18.1649L15.7317 17.2436L15.7295 17.2407L14.548 18.1649ZM12.8642 17.3657L12.8332 15.866L12.8642 17.3657ZM11.2147 18.2337L9.99613 17.3589L9.99442 17.3613L11.2147 18.2337ZM2.84859 27.3572C2.36681 28.0311 2.52258 28.968 3.19651 29.4497C3.87044 29.9315 4.80732 29.7758 5.2891 29.1018L2.84859 27.3572ZM33.0834 14.917V10.7503H30.0834V14.917H33.0834ZM33.0834 10.7503C33.0834 5.31953 28.6809 0.916992 23.2501 0.916992V3.91699C27.024 3.91699 30.0834 6.97638 30.0834 10.7503H33.0834ZM23.2501 0.916992H10.7501V3.91699H23.2501V0.916992ZM10.7501 0.916992C5.31929 0.916992 0.916759 5.31953 0.916759 10.7503H3.91676C3.91676 6.97638 6.97615 3.91699 10.7501 3.91699V0.916992ZM0.916759 10.7503V23.2503H3.91676V10.7503H0.916759ZM0.91676 23.2483C0.913921 25.3676 1.59843 27.4306 2.86756 29.1278L5.27012 27.3312C4.38966 26.1538 3.91479 24.7226 3.91676 23.2523L0.91676 23.2483ZM30.0834 14.917V23.2503H33.0834V14.917H30.0834ZM30.0834 23.2503C30.0834 27.0243 27.024 30.0837 23.2501 30.0837V33.0837C28.6809 33.0837 33.0834 28.6811 33.0834 23.2503H30.0834ZM23.2501 30.0837H10.7501V33.0837H23.2501V30.0837ZM10.7491 30.0837C8.59141 30.085 6.56027 29.0653 5.27233 27.3341L2.86537 29.1248C4.71978 31.6175 7.64428 33.0856 10.7511 33.0837L10.7491 30.0837ZM30.5759 13.8057L20.7843 22.6828L22.7993 24.9054L32.5909 16.0283L30.5759 13.8057ZM20.7741 22.6921C20.6541 22.8029 20.4932 22.8583 20.3304 22.8449L20.084 25.8348C21.0838 25.9172 22.0724 25.5767 22.8094 24.8961L20.7741 22.6921ZM20.3304 22.8449C20.1677 22.8315 20.018 22.7504 19.9178 22.6215L17.5491 24.4625C18.1647 25.2546 19.0842 25.7523 20.084 25.8348L20.3304 22.8449ZM19.9171 22.6206L15.7317 17.2436L13.3643 19.0863L17.5497 24.4633L19.9171 22.6206ZM15.7295 17.2407C15.0343 16.3521 13.9612 15.8427 12.8332 15.866L12.8951 18.8653C13.0787 18.8615 13.2534 18.9445 13.3666 19.0891L15.7295 17.2407ZM12.8332 15.866C11.7052 15.8892 10.6541 16.4424 9.99613 17.3589L12.4332 19.1084C12.5403 18.9592 12.7115 18.8691 12.8951 18.8653L12.8332 15.866ZM9.99442 17.3613L2.84859 27.3572L5.2891 29.1018L12.4349 19.106L9.99442 17.3613Z" fill="white"/>
</svg>
