<svg width="23" height="25" viewBox="0 0 23 25" fill="none" xmlns="http://www.w3.org/2000/svg">
<path fill-rule="evenodd" clip-rule="evenodd" d="M19.0834 1.18606L21.3671 3.0046C21.5877 3.21217 21.712 3.50208 21.7103 3.80494C21.7087 4.1078 21.5812 4.39634 21.3584 4.60147L19.623 6.67814L13.7182 13.7204C13.6149 13.8387 13.4772 13.9218 13.3244 13.9581L10.2619 14.6523C9.86013 14.6724 9.51034 14.3804 9.45837 13.9815V10.8344C9.4688 10.6827 9.52992 10.5389 9.63192 10.4261L15.4273 3.87377L17.4165 1.49814C17.81 0.982299 18.5299 0.847525 19.0834 1.18606Z" stroke="black" stroke-width="2" stroke-linecap="round" stroke-linejoin="round"/>
<path d="M10.5273 5.70801C11.0796 5.70801 11.5273 5.26029 11.5273 4.70801C11.5273 4.15572 11.0796 3.70801 10.5273 3.70801V5.70801ZM6.44397 4.70801V3.708L6.44157 3.70801L6.44397 4.70801ZM1.00001 10.1768H2.00002L2.00001 10.1746L1.00001 10.1768ZM1.00001 18.3799L2.00001 18.382V18.3799H1.00001ZM6.44397 23.8486L6.44157 24.8486H6.44397V23.8486ZM14.6106 23.8486V24.8486L14.613 24.8486L14.6106 23.8486ZM20.0546 18.3799H19.0546L19.0546 18.382L20.0546 18.3799ZM21.0546 12.9111C21.0546 12.3588 20.6069 11.9111 20.0546 11.9111C19.5023 11.9111 19.0546 12.3588 19.0546 12.9111H21.0546ZM16.06 4.47517C15.8492 3.96468 15.2645 3.72168 14.7541 3.93242C14.2436 4.14317 14.0006 4.72785 14.2113 5.23834L16.06 4.47517ZM19.5471 8.63173C20.0864 8.51252 20.4269 7.97872 20.3077 7.43945C20.1885 6.90019 19.6547 6.55966 19.1154 6.67887L19.5471 8.63173ZM5.08335 18.7478C4.53106 18.7478 4.08335 19.1955 4.08335 19.7478C4.08335 20.3001 4.53106 20.7478 5.08335 20.7478V18.7478ZM15.9727 20.7478C16.525 20.7478 16.9727 20.3001 16.9727 19.7478C16.9727 19.1955 16.525 18.7478 15.9727 18.7478V20.7478ZM10.5273 3.70801H6.44397V5.70801H10.5273V3.70801ZM6.44157 3.70801C2.87609 3.71658 -0.00761783 6.61342 1.508e-05 10.1789L2.00001 10.1746C1.99474 7.7135 3.98526 5.71392 6.44637 5.708L6.44157 3.70801ZM1.27554e-05 10.1768V18.3799H2.00001V10.1768H1.27554e-05ZM1.508e-05 18.3777C-0.00761783 21.9432 2.87609 24.8401 6.44157 24.8486L6.44637 22.8486C3.98526 22.8427 1.99474 20.8431 2.00001 18.382L1.508e-05 18.3777ZM6.44397 24.8486H14.6106V22.8486H6.44397V24.8486ZM14.613 24.8486C18.1785 24.8401 21.0622 21.9432 21.0546 18.3777L19.0546 18.382C19.0599 20.8431 17.0693 22.8427 14.6082 22.8486L14.613 24.8486ZM21.0546 18.3799V12.9111H19.0546V18.3799H21.0546ZM14.2113 5.23834C14.4913 5.9166 15.0637 6.87938 15.917 7.62184C16.7884 8.38012 18.0329 8.96646 19.5471 8.63173L19.1154 6.67887C18.3999 6.83705 17.7813 6.59288 17.2298 6.11303C16.6601 5.61737 16.2496 4.93441 16.06 4.47517L14.2113 5.23834ZM5.08335 20.7478H15.9727V18.7478H5.08335V20.7478Z" fill="black"/>
</svg>
