<svg width="23" height="23" viewBox="0 0 23 23" fill="none" xmlns="http://www.w3.org/2000/svg">
<path fill-rule="evenodd" clip-rule="evenodd" d="M1.29175 11.5004C1.2921 6.63024 4.7326 2.43857 9.5092 1.48877C14.2858 0.538982 19.0682 3.0956 20.9316 7.59511C22.795 12.0946 21.2206 17.2839 17.171 19.9893C13.1215 22.6948 7.72485 22.163 4.28133 18.7191C2.36694 16.8045 1.29155 14.2078 1.29175 11.5004Z" stroke="white" stroke-width="2" stroke-linecap="round" stroke-linejoin="round"/>
<path d="M7.67188 10.5002C7.11959 10.5002 6.67188 10.948 6.67188 11.5002C6.67188 12.0525 7.11959 12.5002 7.67188 12.5002V10.5002ZM11.5 12.5002C12.0523 12.5002 12.5 12.0525 12.5 11.5002C12.5 10.948 12.0523 10.5002 11.5 10.5002V12.5002ZM11.5 10.5002C10.9477 10.5002 10.5 10.948 10.5 11.5002C10.5 12.0525 10.9477 12.5002 11.5 12.5002V10.5002ZM15.3281 12.5002C15.8804 12.5002 16.3281 12.0525 16.3281 11.5002C16.3281 10.948 15.8804 10.5002 15.3281 10.5002V12.5002ZM12.5 11.5002C12.5 10.948 12.0523 10.5002 11.5 10.5002C10.9477 10.5002 10.5 10.948 10.5 11.5002H12.5ZM10.5 15.3284C10.5 15.8807 10.9477 16.3284 11.5 16.3284C12.0523 16.3284 12.5 15.8807 12.5 15.3284H10.5ZM10.5 11.5002C10.5 12.0525 10.9477 12.5002 11.5 12.5002C12.0523 12.5002 12.5 12.0525 12.5 11.5002H10.5ZM12.5 7.67212C12.5 7.11983 12.0523 6.67212 11.5 6.67212C10.9477 6.67212 10.5 7.11983 10.5 7.67212H12.5ZM7.67188 12.5002H11.5V10.5002H7.67188V12.5002ZM11.5 12.5002H15.3281V10.5002H11.5V12.5002ZM10.5 11.5002V15.3284H12.5V11.5002H10.5ZM12.5 11.5002V7.67212H10.5V11.5002H12.5Z" fill="white"/>
</svg>
