<svg width="17" height="17" viewBox="0 0 17 17" fill="none" xmlns="http://www.w3.org/2000/svg">
<path d="M0.501145 15.0847C0.110621 15.4752 0.110621 16.1084 0.501145 16.4989C0.891669 16.8895 1.52483 16.8895 1.91536 16.4989L0.501145 15.0847ZM9.20703 9.20727C9.59755 8.81675 9.59755 8.18358 9.20703 7.79306C8.8165 7.40253 8.18334 7.40253 7.79281 7.79306L9.20703 9.20727ZM7.79281 7.79306C7.40229 8.18358 7.40229 8.81674 7.79281 9.20727C8.18334 9.59779 8.8165 9.59779 9.20703 9.20727L7.79281 7.79306ZM16.4987 1.9156C16.8892 1.52508 16.8892 0.891914 16.4987 0.501389C16.1082 0.110865 15.475 0.110865 15.0845 0.501389L16.4987 1.9156ZM9.20703 7.79306C8.8165 7.40253 8.18334 7.40253 7.79281 7.79306C7.40229 8.18358 7.40229 8.81675 7.79281 9.20727L9.20703 7.79306ZM15.0845 16.4989C15.475 16.8895 16.1082 16.8895 16.4987 16.4989C16.8892 16.1084 16.8892 15.4752 16.4987 15.0847L15.0845 16.4989ZM7.79281 9.20727C8.18334 9.59779 8.8165 9.59779 9.20703 9.20727C9.59755 8.81674 9.59755 8.18358 9.20703 7.79306L7.79281 9.20727ZM1.91536 0.501389C1.52483 0.110865 0.891669 0.110865 0.501145 0.501389C0.110621 0.891914 0.110621 1.52508 0.501145 1.9156L1.91536 0.501389ZM1.91536 16.4989L9.20703 9.20727L7.79281 7.79306L0.501145 15.0847L1.91536 16.4989ZM9.20703 9.20727L16.4987 1.9156L15.0845 0.501389L7.79281 7.79306L9.20703 9.20727ZM7.79281 9.20727L15.0845 16.4989L16.4987 15.0847L9.20703 7.79306L7.79281 9.20727ZM9.20703 7.79306L1.91536 0.501389L0.501145 1.9156L7.79281 9.20727L9.20703 7.79306Z" fill="black"/>
</svg>
