<svg width="60" height="22" viewBox="0 0 60 22" fill="none" xmlns="http://www.w3.org/2000/svg">
<rect width="60" height="22" rx="11" fill="url(#paint0_linear_48_4327)"/>
<path d="M36.436 4.956H37.948V11.916H36.436V4.956ZM35.08 7.692H36.856V8.988H35.08V7.692ZM34.132 5.172H35.62V11.556H34.132V5.172ZM28.432 6.096H33.82V7.32H28.432V6.096ZM31.144 7.68C32.536 7.68 33.544 8.472 33.544 9.624C33.544 10.776 32.536 11.556 31.144 11.556C29.752 11.556 28.744 10.776 28.744 9.624C28.744 8.472 29.752 7.68 31.144 7.68ZM31.144 8.82C30.556 8.82 30.16 9.108 30.16 9.624C30.16 10.14 30.556 10.428 31.144 10.428C31.72 10.428 32.116 10.14 32.116 9.624C32.116 9.108 31.72 8.82 31.144 8.82ZM30.34 5.064H31.912V6.936H30.34V5.064ZM34.192 12.036C36.568 12.036 38.008 12.756 38.008 14.052C38.008 15.336 36.568 16.068 34.192 16.068C31.804 16.068 30.364 15.336 30.364 14.052C30.364 12.756 31.804 12.036 34.192 12.036ZM34.192 13.224C32.704 13.224 31.96 13.476 31.96 14.052C31.96 14.616 32.704 14.88 34.192 14.88C35.668 14.88 36.412 14.616 36.412 14.052C36.412 13.476 35.668 13.224 34.192 13.224ZM42.0151 5.808H43.3111V7.428C43.3111 10.176 42.3511 12.756 40.2511 13.788L39.2911 12.504C41.1631 11.628 42.0151 9.492 42.0151 7.428V5.808ZM42.3391 5.808H43.6111V7.428C43.6111 9.42 44.4031 11.448 46.1791 12.312L45.2191 13.584C43.2151 12.564 42.3391 10.092 42.3391 7.428V5.808ZM46.6231 4.956H48.2311V16.068H46.6231V4.956ZM47.8711 9.228H49.8391V10.56H47.8711V9.228Z" fill="white"/>
<path d="M10.7369 12.9706C10.62 13.1724 10.5543 13.4006 10.5457 13.6346C10.5457 14.5782 11.3849 14.988 11.9404 15.2581C12.1309 15.3422 12.3132 15.4445 12.4847 15.5636C12.4385 15.6625 12.3859 15.7583 12.3272 15.8501L13.5708 16.6413C13.8024 16.3186 13.9403 15.9365 13.9688 15.5382C13.9688 14.5946 13.1297 14.1844 12.5742 13.9142C12.3931 13.8328 12.2188 13.7368 12.0529 13.6271C12.1465 13.4518 12.2502 13.2821 12.3634 13.1191C12.8642 12.9572 13.3278 12.6944 13.7263 12.3464C14.1248 11.9984 14.4501 11.5724 14.6828 11.0938C14.9891 11.6998 15.4732 12.1942 16.0682 12.5087C15.9266 12.8664 15.8926 13.2587 15.9704 13.6361C16.0781 13.9559 16.2515 14.2487 16.4792 14.4952C16.7068 14.7417 16.9835 14.9363 17.2908 15.0659C17.991 15.4712 17.9866 15.4801 17.7416 15.9415L19.0341 16.6478C19.9633 14.8966 18.6478 14.1367 18.0165 13.7712C17.769 13.6281 17.4297 13.432 17.3984 13.2959C17.3896 13.2586 17.3695 13.0476 17.7015 12.5246C18.9901 11.9485 19.8371 10.0389 19.8371 8.29069C19.8543 7.89205 19.7906 7.49407 19.65 7.12149C19.5094 6.7489 19.2948 6.40966 19.0197 6.12484C18.7445 5.84003 18.4146 5.61572 18.0505 5.46586C17.6863 5.316 17.2957 5.24378 16.903 5.2537C16.494 5.24524 16.0879 5.32533 15.7118 5.48863C15.3356 5.65193 14.998 5.89471 14.7214 6.2008C14.3699 5.74768 13.9211 5.38208 13.4093 5.13188C12.8975 4.88167 12.3362 4.75347 11.7682 4.75705C10.8219 4.73246 9.90461 5.08976 9.21717 5.75068C8.52973 6.4116 8.12822 7.32227 8.10059 8.28324C8.10059 10.1606 9.19404 12.2852 10.7369 12.9706ZM16.903 6.74363C17.1025 6.73607 17.3013 6.77138 17.4864 6.84723C17.6716 6.92308 17.8388 7.03777 17.9773 7.18381C18.1158 7.32984 18.2224 7.50392 18.29 7.69466C18.3577 7.88541 18.385 8.08851 18.37 8.29069C18.37 9.76821 17.5299 11.2134 16.903 11.2134C16.276 11.2134 15.4359 9.76821 15.4359 8.29069C15.421 8.08851 15.4482 7.88541 15.5159 7.69466C15.5836 7.50392 15.6901 7.32984 15.8286 7.18381C15.9671 7.03777 16.1344 6.92308 16.3195 6.84723C16.5047 6.77138 16.7035 6.73607 16.903 6.74363ZM11.7682 6.24699C12.3255 6.22255 12.8696 6.42293 13.2818 6.80442C13.6941 7.1859 13.9411 7.71751 13.9688 8.28324C13.9688 9.77963 12.9013 11.7101 11.7682 11.7101C10.6352 11.7101 9.56765 9.77963 9.56765 8.28324C9.59541 7.71751 9.84238 7.1859 10.2546 6.80442C10.6669 6.42293 11.211 6.22255 11.7682 6.24699Z" fill="white"/>
<defs>
<linearGradient id="paint0_linear_48_4327" x1="2.5" y1="5" x2="60" y2="16" gradientUnits="userSpaceOnUse">
<stop stop-color="#EAAB83"/>
<stop offset="1" stop-color="#FFEA7C"/>
</linearGradient>
</defs>
</svg>
