<svg width="60" height="24" viewBox="0 0 60 24" fill="none" xmlns="http://www.w3.org/2000/svg">
<rect width="60" height="22" rx="11" fill="url(#paint0_linear_48_4294)"/>
<path d="M29.7334 5.46H31.0534V6.528C31.0534 8.628 30.0334 10.536 27.8614 11.232L27.0814 9.972C28.9534 9.372 29.7334 7.932 29.7334 6.528V5.46ZM30.0574 5.46H31.3654V6.528C31.3654 7.896 32.1334 9.24 33.9454 9.792L33.1654 11.04C31.0414 10.368 30.0574 8.592 30.0574 6.528V5.46ZM28.7854 12.072H36.3694V16.068H34.7614V13.344H28.7854V12.072ZM34.7614 4.956H36.3694V11.58H34.7614V4.956ZM45.3325 4.956H46.9405V11.364H45.3325V4.956ZM46.4725 7.584H48.3925V8.88H46.4725V7.584ZM43.2925 11.568C45.5725 11.568 47.0485 12.42 47.0485 13.824C47.0485 15.24 45.5725 16.08 43.2925 16.08C41.0005 16.08 39.5245 15.24 39.5245 13.824C39.5245 12.42 41.0005 11.568 43.2925 11.568ZM43.2925 12.84C41.8765 12.84 41.0965 13.152 41.0965 13.824C41.0965 14.484 41.8765 14.808 43.2925 14.808C44.6965 14.808 45.4765 14.484 45.4765 13.824C45.4765 13.152 44.6965 12.84 43.2925 12.84ZM38.5525 9.516H39.4765C41.9245 9.516 43.1365 9.456 44.4685 9.168L44.6245 10.44C43.2685 10.74 41.9845 10.788 39.4765 10.788H38.5525V9.516ZM38.5525 5.7H43.5205V6.972H40.1365V10.38H38.5525V5.7Z" fill="white"/>
<path d="M16.2921 11.7655C16.3283 11.3529 16.0232 10.9891 15.6105 10.9529C15.1979 10.9167 14.8341 11.2218 14.7979 11.6345L16.2921 11.7655ZM15.029 17.583L14.2819 17.5175C14.279 17.5505 14.2783 17.5837 14.2798 17.6168L15.029 17.583ZM17.97 17.583L18.7192 17.6168C18.7207 17.5838 18.72 17.5506 18.7172 17.5176L17.97 17.583ZM18.2022 11.6346C18.166 11.222 17.8022 10.9167 17.3896 10.9529C16.977 10.989 16.6717 11.3528 16.7079 11.7654L18.2022 11.6346ZM14.3508 5.22704C14.4762 4.83227 14.2578 4.41058 13.8631 4.28519C13.4683 4.1598 13.0466 4.37818 12.9212 4.77296L14.3508 5.22704ZM13 8.256L12.2523 8.19737C12.2508 8.21637 12.25 8.23541 12.25 8.25447L13 8.256ZM14.025 10.789L14.5629 10.2664L14.5629 10.2663L14.025 10.789ZM16.4986 12.588C16.9128 12.5888 17.2492 12.2537 17.25 11.8394C17.2508 11.4252 16.9157 11.0888 16.5015 11.088L16.4986 12.588ZM15.75 11.8384C15.75 12.2526 16.0858 12.5884 16.5 12.5884C16.9142 12.5884 17.25 12.2526 17.25 11.8384H15.75ZM17.25 5.65137C17.25 5.23715 16.9142 4.90137 16.5 4.90137C16.0858 4.90137 15.75 5.23715 15.75 5.65137H17.25ZM16.4983 11.0876C16.0841 11.0885 15.7491 11.425 15.75 11.8392C15.7509 12.2534 16.0874 12.5885 16.5016 12.5876L16.4983 11.0876ZM17.6657 12.4193C18.0633 12.3029 18.2912 11.8863 18.1748 11.4888C18.0584 11.0913 17.6417 10.8634 17.2442 10.9798L17.6657 12.4193ZM17.2452 10.9799C16.8475 11.0958 16.6191 11.5121 16.735 11.9098C16.8508 12.3075 17.2671 12.5359 17.6648 12.4201L17.2452 10.9799ZM18.975 10.787L19.5121 11.3105L19.5129 11.3097L18.975 10.787ZM20 8.256L20.75 8.25488C20.75 8.23569 20.7492 8.2165 20.7477 8.19737L20 8.256ZM20.0788 4.77296C19.9534 4.37818 19.5317 4.1598 19.137 4.28519C18.7422 4.41058 18.5238 4.83227 18.6492 5.22704L20.0788 4.77296ZM14.7979 11.6345L14.2819 17.5175L15.7761 17.6485L16.2921 11.7655L14.7979 11.6345ZM14.2798 17.6168C14.3334 18.8038 15.3113 19.7386 16.4995 19.7386V18.2386C16.1134 18.2386 15.7957 17.9348 15.7782 17.5491L14.2798 17.6168ZM16.4995 19.7386C17.6877 19.7386 18.6656 18.8038 18.7192 17.6168L17.2208 17.5491C17.2033 17.9348 16.8856 18.2386 16.4995 18.2386V19.7386ZM18.7172 17.5176L18.2022 11.6346L16.7079 11.7654L17.2229 17.6484L18.7172 17.5176ZM12.9212 4.77296C12.568 5.88508 12.3435 7.03407 12.2523 8.19737L13.7477 8.31463C13.83 7.26575 14.0323 6.22978 14.3508 5.22704L12.9212 4.77296ZM12.25 8.25447C12.2477 9.39592 12.6916 10.4931 13.4871 11.3117L14.5629 10.2663C14.0402 9.72844 13.7485 9.00754 13.75 8.25753L12.25 8.25447ZM13.4871 11.3116C14.2778 12.1256 15.3637 12.5858 16.4986 12.588L16.5015 11.088C15.771 11.0866 15.072 10.7903 14.5629 10.2664L13.4871 11.3116ZM17.25 11.8384V5.65137H15.75V11.8384H17.25ZM16.5016 12.5876C16.8956 12.5867 17.2876 12.5301 17.6657 12.4193L17.2442 10.9798C17.0019 11.0507 16.7508 11.087 16.4983 11.0876L16.5016 12.5876ZM17.6648 12.4201C18.366 12.2157 19.0024 11.8335 19.5121 11.3105L18.4379 10.2635C18.1088 10.6012 17.6979 10.848 17.2452 10.9799L17.6648 12.4201ZM19.5129 11.3097C20.3078 10.4917 20.7517 9.3955 20.75 8.25488L19.25 8.25712C19.2511 9.00658 18.9594 9.72683 18.4371 10.2643L19.5129 11.3097ZM20.7477 8.19737C20.6565 7.03407 20.4321 5.88508 20.0788 4.77296L18.6492 5.22704C18.9677 6.22978 19.1701 7.26575 19.2523 8.31463L20.7477 8.19737Z" fill="white"/>
<defs>
<linearGradient id="paint0_linear_48_4294" x1="-4.57195e-07" y1="4.5" x2="58.5" y2="21" gradientUnits="userSpaceOnUse">
<stop stop-color="#7CC68F"/>
<stop offset="0.739583" stop-color="#C1E7C2"/>
<stop offset="1" stop-color="#BDF279"/>
</linearGradient>
</defs>
</svg>
