<svg width="60" height="22" viewBox="0 0 60 22" fill="none" xmlns="http://www.w3.org/2000/svg">
<rect width="60" height="22" rx="11" fill="url(#paint0_linear_48_4285)"/>
<path d="M31.692 5.1H33.06V5.436C33.06 7.428 31.404 9.06 28.548 9.456L27.972 8.22C30.468 7.908 31.692 6.612 31.692 5.436V5.1ZM31.956 5.1H33.324V5.436C33.324 6.6 34.548 7.908 37.032 8.22L36.456 9.456C33.6 9.06 31.956 7.416 31.956 5.436V5.1ZM31.692 11.016H33.276V12.708H31.692V11.016ZM27.48 10.032H37.524V11.292H27.48V10.032ZM28.596 12.36H36.312V16.068H34.716V13.608H28.596V12.36ZM45.6711 4.956H47.2671V11.616H45.6711V4.956ZM46.8231 7.656H48.7431V8.964H46.8231V7.656ZM39.8511 12.108H47.2671V16.068H45.6711V13.38H39.8511V12.108ZM38.8431 5.652H40.4271V7.116H42.5991V5.652H44.1831V11.052H38.8431V5.652ZM40.4271 8.34V9.804H42.5991V8.34H40.4271Z" fill="white"/>
<path fill-rule="evenodd" clip-rule="evenodd" d="M21.147 13.5632L21.1511 9.70119L18.34 6.96119C17.4916 6.13533 16.1201 6.13533 15.2718 6.96119L12.4668 9.69452V13.5612C12.4691 14.7307 13.4403 15.677 14.6363 15.6752H18.9775C20.1727 15.677 21.1436 14.7319 21.147 13.5632Z" stroke="white" stroke-width="1.5" stroke-linecap="round" stroke-linejoin="round"/>
<path d="M21.9018 7.02148C21.9018 6.60727 21.566 6.27148 21.1518 6.27148C20.7376 6.27148 20.4018 6.60727 20.4018 7.02148H21.9018ZM21.1518 9.70215H20.4018C20.4018 9.90439 20.4834 10.098 20.6283 10.2392L21.1518 9.70215ZM21.7369 11.3199C22.0335 11.609 22.5083 11.6029 22.7975 11.3063C23.0866 11.0097 23.0805 10.5349 22.7839 10.2458L21.7369 11.3199ZM12.9903 10.2325C13.2869 9.94341 13.293 9.46858 13.0038 9.17197C12.7147 8.87536 12.2399 8.8693 11.9433 9.15843L12.9903 10.2325ZM10.8278 10.2458C10.5312 10.5349 10.5251 11.0097 10.8143 11.3063C11.1034 11.6029 11.5782 11.609 11.8748 11.3199L10.8278 10.2458ZM17.4195 15.6762C17.4195 16.0904 17.7553 16.4262 18.1695 16.4262C18.5837 16.4262 18.9195 16.0904 18.9195 15.6762H17.4195ZM14.6922 15.6762C14.6922 16.0904 15.028 16.4262 15.4422 16.4262C15.8564 16.4262 16.1922 16.0904 16.1922 15.6762H14.6922ZM20.4018 7.02148V9.70215H21.9018V7.02148H20.4018ZM20.6283 10.2392L21.7369 11.3199L22.7839 10.2458L21.6753 9.16509L20.6283 10.2392ZM11.9433 9.15843L10.8278 10.2458L11.8748 11.3199L12.9903 10.2325L11.9433 9.15843ZM18.9195 15.6762V14.4895H17.4195V15.6762H18.9195ZM18.9195 14.4895C18.9195 13.3231 17.9572 12.4062 16.8059 12.4062V13.9062C17.1607 13.9062 17.4195 14.1831 17.4195 14.4895H18.9195ZM16.8059 12.4062C15.6545 12.4062 14.6922 13.3231 14.6922 14.4895H16.1922C16.1922 14.1831 16.451 13.9062 16.8059 13.9062V12.4062ZM14.6922 14.4895V15.6762H16.1922V14.4895H14.6922Z" fill="white"/>
<defs>
<linearGradient id="paint0_linear_48_4285" x1="3.5" y1="4.5" x2="58.5" y2="17.5" gradientUnits="userSpaceOnUse">
<stop stop-color="#F17E8F"/>
<stop offset="1" stop-color="#FF84CE" stop-opacity="0.9"/>
</linearGradient>
</defs>
</svg>
