<svg width="60" height="22" viewBox="0 0 60 22" fill="none" xmlns="http://www.w3.org/2000/svg">
<rect width="60" height="22" rx="11" fill="url(#paint0_linear_48_4305)"/>
<path d="M28.972 5.76H33.724V7.044H28.972V5.76ZM30.34 8.352H31.924V11.136H30.34V8.352ZM33.1 5.76H34.672V6.456C34.672 7.236 34.672 8.34 34.408 9.72L32.86 9.552C33.1 8.184 33.1 7.224 33.1 6.456V5.76ZM35.752 4.956H37.36V13.272H35.752V4.956ZM36.724 8.34H38.68V9.648H36.724V8.34ZM29.944 14.604H37.708V15.876H29.944V14.604ZM29.944 12.528H31.54V15H29.944V12.528ZM28.468 11.784L28.324 10.524C30.244 10.524 32.92 10.488 35.152 10.176L35.248 11.304C32.956 11.736 30.376 11.784 28.468 11.784ZM40.0111 5.556H44.7631V6.828H40.0111V5.556ZM41.3791 8.04H42.9631V10.788H41.3791V8.04ZM44.1391 5.556H45.7111V6.276C45.7111 7.02 45.7111 7.992 45.4591 9.204L43.9111 9.084C44.1391 7.896 44.1391 7.02 44.1391 6.276V5.556ZM46.7911 4.956H48.3991V11.724H46.7911V4.956ZM47.7631 7.68H49.7311V9H47.7631V7.68ZM39.5191 11.28L39.3631 10.008C41.3551 10.008 43.9711 9.984 46.1911 9.708L46.2871 10.836C44.0071 11.232 41.4871 11.28 39.5191 11.28ZM44.6431 11.856C47.0071 11.856 48.4951 12.648 48.4951 13.944C48.4951 15.276 47.0071 16.056 44.6431 16.056C42.2791 16.056 40.8031 15.276 40.8031 13.944C40.8031 12.648 42.2791 11.856 44.6431 11.856ZM44.6431 13.08C43.2151 13.08 42.4231 13.368 42.4231 13.944C42.4231 14.544 43.2151 14.82 44.6431 14.82C46.0831 14.82 46.8511 14.544 46.8511 13.944C46.8511 13.368 46.0831 13.08 44.6431 13.08Z" fill="white"/>
<g clip-path="url(#clip0_48_4305)">
<path d="M20.231 8.71982C19.7121 8.71982 19.2144 8.51101 18.8475 8.13931C18.4806 7.76762 18.2744 7.2635 18.2744 6.73784C18.2744 6.21219 18.4806 5.70806 18.8475 5.33637C19.2144 4.96467 19.7121 4.75586 20.231 4.75586C20.7499 4.75586 21.2475 4.96467 21.6145 5.33637C21.9814 5.70806 22.1875 6.21219 22.1875 6.73784C22.1875 7.2635 21.9814 7.76762 21.6145 8.13931C21.2475 8.51101 20.7499 8.71982 20.231 8.71982ZM22.1875 16.6478H15.3396V15.4863L17.4605 11.0487C17.5802 10.8003 17.7667 10.5912 17.9985 10.4454C18.2302 10.2996 18.4979 10.2229 18.7707 10.2243C19.0436 10.2256 19.3105 10.3049 19.5408 10.453C19.7712 10.6011 19.9556 10.812 20.073 11.0615L22.1875 15.4863V16.6478ZM17.1191 15.1613H20.4022L18.7464 11.6978L17.1191 15.1613ZM16.9234 8.23374C16.7849 7.93863 16.5666 7.68936 16.2939 7.51482C16.0212 7.34029 15.7052 7.24765 15.3826 7.24765C15.0601 7.24765 14.7441 7.34029 14.4714 7.51482C14.1987 7.68936 13.9804 7.93863 13.8419 8.23374L10.4482 15.742V16.6478H14.3613V15.1613H12.3119L15.1757 8.8546C15.1928 8.8131 15.2217 8.77765 15.2586 8.75271C15.2956 8.72778 15.339 8.71447 15.3834 8.71447C15.4278 8.71447 15.4712 8.72778 15.5081 8.75271C15.5451 8.77765 15.5739 8.8131 15.591 8.8546L16.4857 10.8247L16.5654 10.6493C16.77 10.1967 17.1064 9.81836 17.5295 9.56514L16.9234 8.23374Z" fill="white"/>
</g>
<defs>
<linearGradient id="paint0_linear_48_4305" x1="3.5" y1="4.5" x2="60" y2="19" gradientUnits="userSpaceOnUse">
<stop stop-color="#6E91EC"/>
<stop offset="0.609679" stop-color="#6EA8EC"/>
<stop offset="1" stop-color="#6ECBEC"/>
</linearGradient>
<clipPath id="clip0_48_4305">
<rect width="11.7393" height="11.8919" fill="white" transform="translate(10.4482 4.75586)"/>
</clipPath>
</defs>
</svg>
